<?xml version="1.0" encoding="UTF-8"?>
<!DOCTYPE svg PUBLIC "-//W3C//DTD SVG 1.1//EN" "http://www.w3.org/Graphics/SVG/1.1/DTD/svg11.dtd">
<!-- Creator: CorelDRAW 2020 (64-Bit) -->
<svg xmlns="http://www.w3.org/2000/svg" xml:space="preserve" width="5.0798mm" height="4.6566mm" version="1.1" style="shape-rendering:geometricPrecision; text-rendering:geometricPrecision; image-rendering:optimizeQuality; fill-rule:evenodd; clip-rule:evenodd"
viewBox="0 0 507.98 465.66"
 xmlns:xlink="http://www.w3.org/1999/xlink"
 xmlns:xodm="http://www.corel.com/coreldraw/odm/2003">
 <defs>
  <style type="text/css">
   <![CDATA[
    .fil1 {fill:#E30031;fill-rule:nonzero}
    .fil0 {fill:white;fill-rule:nonzero}
   ]]>
  </style>
 </defs>
 <g id="Layer_x0020_1">
  <metadata id="CorelCorpID_0Corel-Layer"/>
  <g id="_1375264949744">
   <path class="fil0" d="M37.55 183.07c29.82,-119.54 150.89,-192.26 270.42,-162.45 119.54,29.82 192.27,150.89 162.45,270.42 -29.81,119.54 -150.89,192.27 -270.42,162.46 -119.54,-29.82 -192.27,-150.89 -162.45,-270.43z"/>
   <path class="fil1" d="M318.36 129.3c-24.99,-1.92 -56.35,11.79 -63.74,33.5 -7.61,-21.62 -46.01,-34.74 -70.98,-32.53 -65.89,5.82 -87.82,80.62 -59.61,130.67 15.18,26.95 36.92,50.46 60.61,71.55 19.84,17.66 70.98,55.06 71.13,54.93 0.16,0.13 50.91,-37.84 70.56,-55.72 23.48,-21.35 44.98,-45.1 59.88,-72.21 27.69,-50.38 -1.9,-125.1 -67.85,-130.19z"/>
  </g>
 </g>
</svg>
