<svg xmlns="http://www.w3.org/2000/svg" width="30" height="25.458" viewBox="0 0 30 25.458">
  <title>Heart</title>
  <g>
    <path d="M15,25.458a3.083,3.083,0,0,1-2.188-.906L2.441,14.182A8.334,8.334,0,0,1,3.2,1.727a8.5,8.5,0,0,1,11.248.887.8.8,0,0,0,1.113,0,8.558,8.558,0,0,1,11.82-.395,8.335,8.335,0,0,1,.184,11.963l-7.728,7.727h0l-2.643,2.643A3.085,3.085,0,0,1,15,25.458ZM8.206,2.026A6.057,6.057,0,0,0,4.434,3.3a6.336,6.336,0,0,0-.579,9.471l10.371,10.37a1.1,1.1,0,0,0,1.549,0l10.371-10.37a6.336,6.336,0,0,0-.141-9.093,6.545,6.545,0,0,0-9.034.353,2.853,2.853,0,0,1-3.942,0A6.853,6.853,0,0,0,8.206,2.026ZM19.125,21.2h0Z" fill="#fff"/>
    <g>
      <path d="M3.814,2.512a7.336,7.336,0,0,0-.666,10.963" fill="#000"/>
      <path d="M2.8,13.828a7.833,7.833,0,0,1,.71-11.709l.619.785A6.836,6.836,0,0,0,3.5,13.121Z" fill="#fff"/>
    </g>
    <path d="M3.148,14.475a1,1,0,0,1-.707-.293A8.334,8.334,0,0,1,3.2,1.727,1,1,0,1,1,4.434,3.3a6.336,6.336,0,0,0-.579,9.471,1,1,0,0,1-.707,1.707Z" fill="#fff"/>
  </g>
</svg>
