<svg xmlns="http://www.w3.org/2000/svg" width="30" height="30" viewBox="0 0 30 30">
  <title>Home</title>
  <g>
    <path d="M29,15.667a1,1,0,0,1-.639-.232L15.64,4.835a1,1,0,0,0-1.28,0L1.64,15.435A1,1,0,0,1,.36,13.9L13.079,3.3a3,3,0,0,1,3.841,0L29.64,13.9A1,1,0,0,1,29,15.667Z" fill="white"/>
    <path d="M5,12a1,1,0,0,1-1-1V2.469A2.471,2.471,0,0,1,6.469,0H7.531A2.472,2.472,0,0,1,10,2.469V8A1,1,0,0,1,8,8V2.469A.47.47,0,0,0,7.531,2H6.469A.469.469,0,0,0,6,2.469V11A1,1,0,0,1,5,12Z" fill="white"/>
    <path d="M23,30H20a3,3,0,0,1-3-3V22a2,2,0,0,0-4,0v5a3,3,0,0,1-3,3H7a3,3,0,0,1-3-3V16a1,1,0,0,1,2,0V27a1,1,0,0,0,1,1h3a1,1,0,0,0,1-1V22a4,4,0,0,1,8,0v5a1,1,0,0,0,1,1h3a1,1,0,0,0,1-1V16a1,1,0,0,1,2,0V27A3,3,0,0,1,23,30Z" fill="white"/>
  </g>
</svg>
