<?xml version="1.0" encoding="utf-8"?>
<!-- Generator: Adobe Illustrator 24.1.1, SVG Export Plug-In . SVG Version: 6.00 Build 0)  -->
<svg version="1.2" baseProfile="tiny" id="Camada_1"
	 xmlns="http://www.w3.org/2000/svg" xmlns:xlink="http://www.w3.org/1999/xlink" x="0px" y="0px" viewBox="0 0 600 300"
	 xml:space="preserve">
<g>
	<g>
		<text transform="matrix(1 0 0 1 81.2914 162.7749)" fill="#333333" font-family="'AlpacaScarlettDemo'" font-size="62.1058px">P</text>
		<text transform="matrix(1 0 0 1 116.1595 162.7749)" fill="#333333" font-family="'AlpacaScarlettDemo'" font-size="62.1058px">E</text>
		<text transform="matrix(1 0 0 1 148.4803 162.7749)" fill="#333333" font-family="'AlpacaScarlettDemo'" font-size="62.1058px">S</text>
		<text transform="matrix(1 0 0 1 179.7704 162.7749)" fill="#333333" font-family="'AlpacaScarlettDemo'" font-size="62.1058px">A</text>
		<text transform="matrix(1 0 0 1 222.0975 162.7749)" fill="#333333" font-family="'AlpacaScarlettDemo'" font-size="62.1058px">D</text>
		<text transform="matrix(1 0 0 1 261.8167 162.7749)" fill="#333333" font-family="'AlpacaScarlettDemo'" font-size="62.1058px">E</text>
		<text transform="matrix(1 0 0 1 294.1375 162.7749)" fill="#333333" font-family="'AlpacaScarlettDemo'" font-size="62.1058px">L</text>
		<text transform="matrix(1 0 0 1 322.0008 162.7749)" fill="#333333" font-family="'AlpacaScarlettDemo'" font-size="62.1058px">O</text>
		<text transform="matrix(1 0 0 1 375.243 162.7749)" fill="#333333" font-family="'AlpacaScarlettDemo'" font-size="62.1058px"> </text>
		<text transform="matrix(1 0 0 1 390.6454 162.7749)" fill="#333333" font-family="'AlpacaScarlettDemo'" font-size="62.1058px">D</text>
		<text transform="matrix(1 0 0 1 430.3646 162.7749)" fill="#333333" font-family="'AlpacaScarlettDemo'" font-size="62.1058px">O</text>
		<text transform="matrix(1 0 0 1 483.6068 162.7749)" fill="#333333" font-family="'AlpacaScarlettDemo'" font-size="62.1058px">S</text>
		<text transform="matrix(1 0 0 1 81.5067 235.0786)" fill="#333333" font-family="'AlpacaScarlettDemo'" font-size="63.981px">R</text>
		<text transform="matrix(1 0 0 1 118.4583 235.0786)" fill="#333333" font-family="'AlpacaScarlettDemo'" font-size="63.981px">E</text>
		<text transform="matrix(1 0 0 1 151.7552 235.0786)" fill="#333333" font-family="'AlpacaScarlettDemo'" font-size="63.981px">S</text>
		<text transform="matrix(1 0 0 1 187.5511 235.0786)" fill="#333333" font-family="'AlpacaScarlettDemo'" font-size="63.981px">T</text>
		<text transform="matrix(1 0 0 1 211.6634 235.0786)" fill="#333333" font-family="'AlpacaScarlettDemo'" font-size="63.981px">A</text>
		<text transform="matrix(1 0 0 1 250.3324 235.0786)" fill="#333333" font-family="'AlpacaScarlettDemo'" font-size="63.981px">U</text>
		<text transform="matrix(1 0 0 1 292.5003 235.0786)" fill="#333333" font-family="'AlpacaScarlettDemo'" font-size="63.981px">R</text>
		<text transform="matrix(1 0 0 1 329.4525 235.0786)" fill="#333333" font-family="'AlpacaScarlettDemo'" font-size="63.981px">A</text>
		<text transform="matrix(1 0 0 1 373.0575 235.0786)" fill="#333333" font-family="'AlpacaScarlettDemo'" font-size="63.981px">N</text>
		<text transform="matrix(1 0 0 1 413.9447 235.0786)" fill="#333333" font-family="'AlpacaScarlettDemo'" font-size="63.981px">T</text>
		<text transform="matrix(1 0 0 1 449.6161 235.0786)" fill="#333333" font-family="'AlpacaScarlettDemo'" font-size="63.981px">E</text>
		<text transform="matrix(1 0 0 1 482.9124 235.0786)" fill="#333333" font-family="'AlpacaScarlettDemo'" font-size="63.981px">S</text>
	</g>
	<g>
		<g>
			<rect x="85.9" y="247.9" fill="#333333" width="438" height="1"/>
			<rect x="83.9" y="247.9" fill="#333333" width="1" height="1"/>
			<rect x="83" y="247.9" fill="#333333" width="1" height="1"/>
			<rect x="81" y="247.9" fill="#333333" width="1" height="1"/>
			<rect x="79.1" y="247.9" fill="#333333" width="1" height="1"/>
			<rect x="79.1" y="247.9" fill="#333333" width="1" height="1"/>
			<rect x="78.1" y="247.9" fill="#333333" width="1" height="1"/>
			<rect x="76.2" y="247.9" fill="#333333" width="1" height="1"/>
			<rect x="74.2" y="247.9" fill="#333333" width="1" height="1"/>
			
				<rect x="524.8" y="247.9" transform="matrix(-1 -1.224647e-16 1.224647e-16 -1 1050.5902 496.8242)" fill="#333333" width="1" height="1"/>
		</g>
		<g>
			
				<rect x="76.2" y="250.5" transform="matrix(-1 -1.224647e-16 1.224647e-16 -1 590.3018 501.9492)" fill="#333333" width="438" height="1"/>
			
				<rect x="515.1" y="250.5" transform="matrix(-1 -1.224647e-16 1.224647e-16 -1 1031.1938 501.9492)" fill="#333333" width="1" height="1"/>
			
				<rect x="516.1" y="250.5" transform="matrix(-1 -1.224647e-16 1.224647e-16 -1 1033.1296 501.9492)" fill="#333333" width="1" height="1"/>
			
				<rect x="518" y="250.5" transform="matrix(-1 -1.224647e-16 1.224647e-16 -1 1037.0013 501.9492)" fill="#333333" width="1" height="1"/>
			
				<rect x="520" y="250.5" transform="matrix(-1 -1.224647e-16 1.224647e-16 -1 1040.9109 501.9492)" fill="#333333" width="1" height="1"/>
			
				<rect x="520" y="250.5" transform="matrix(-1 -1.224647e-16 1.224647e-16 -1 1040.8732 501.9492)" fill="#333333" width="1" height="1"/>
			
				<rect x="520.9" y="250.5" transform="matrix(-1 -1.224647e-16 1.224647e-16 -1 1042.8468 501.9492)" fill="#333333" width="1" height="1"/>
			
				<rect x="522.9" y="250.5" transform="matrix(-1 -1.224647e-16 1.224647e-16 -1 1046.7185 501.9492)" fill="#333333" width="1" height="1"/>
			
				<rect x="524.8" y="250.5" transform="matrix(-1 -1.224647e-16 1.224647e-16 -1 1050.5902 501.9492)" fill="#333333" width="1" height="1"/>
			<rect x="74.2" y="250.5" fill="#333333" width="1" height="1"/>
		</g>
	</g>
	<g>
		<g>
			<g>
				<path fill="#333333" d="M282.9,83.2c-1-0.6-6.4-3.7-18.4-10.6c-1.3-0.7-12-6.1-15-7.1c0,0-0.1,9.2,28.9,25.9c0,0,0.6,0.4,1-0.3
					c0.3-0.5,0.8-1.9,4.1-2.2c0.1,0,0.2,0,0.3,0.1c0.6,0.2,2.1,1.5,3.8,2.5c1.1,0.7,2.3,1.4,3.2,2c2.7,1.6,4.2,1.7,4.7,2.3
					c0.5,0.5,1.3,1.2,2.1,1.7c0.7,0.4,1.4,0.7,2,0.5c1.2-0.3,1.1-2.6,0.8-4.1c-0.1-0.5-0.7-1-1.4-1.4l-12.2-7
					C286,85,283.8,83.7,282.9,83.2C283,83.2,282.9,83.2,282.9,83.2z"/>
				<g>
					<path fill="#333333" d="M273.5,90.1c-0.7,0.3-1.4,0.7-2.1,1c-0.6,0.3-1.3,0.7-1.9,1c-0.6,0.3-1.3,0.7-1.8,1.1
						c-0.3,0.2-0.6,0.4-0.9,0.6c-0.1,0.1-0.3,0.2-0.4,0.3c-0.1,0.1-0.3,0.2-0.4,0.3c-0.3,0.2-0.5,0.5-0.8,0.8
						c-0.1,0.1-0.2,0.3-0.3,0.5c-0.1,0.2-0.2,0.3-0.3,0.5c0,0.1-0.1,0.2-0.1,0.3c-0.1,0.6,0.4,1.1,1,1.2c0.2,0,0.4,0,0.6,0
						c0.2,0,0.4,0,0.6-0.1c0.4-0.1,0.7-0.2,1.1-0.3c0.2-0.1,0.3-0.1,0.5-0.2c0.2-0.1,0.3-0.1,0.5-0.2c0.3-0.1,0.7-0.3,1-0.4
						c0.6-0.3,1.3-0.7,1.9-1c0.6-0.4,1.2-0.8,1.8-1.1c1.2-0.8,2.4-1.6,3.5-2.4C275.7,91.4,274.6,90.8,273.5,90.1z"/>
					<path fill="#333333" d="M279.2,87.4c-0.6,0.3-1.3,0.6-2,0.9l-2,0.9c-0.1,0.1-0.2,0.1-0.3,0.2c0.9,0.5,1.9,1.1,2.8,1.7
						c0,0,0.2,0.1,0.4,0.1c0,0,0,0,0,0l0.5-0.3c0.1,0,0.1-0.1,0.2-0.1c0.3-0.5,0.6-1.5,2.9-2c0.8-0.5,1.5-1,2.3-1.5
						c0.9-0.6,1.9-1.2,2.8-1.7l-0.6-0.4c-0.3-0.2-0.7-0.4-1.3-0.7c-0.7,0.4-1.3,0.7-2,1C281.8,86.1,280.5,86.8,279.2,87.4z"/>
					<path fill="#333333" d="M314.5,71.6c-0.8,0.3-4.6,2.3-8.9,4.7c-0.3,0.2-1,0.6-1.3,0.2c-0.3-0.4,0.3-0.7,0.9-1.1
						c0.5-0.3,6.8-4,8.4-5.2c0,0,0.9-0.6-0.1-0.2c0,0-4.5,2.2-8.6,4.6c-0.3,0.2-1.3,0.7-1.5,0.3c-0.3-0.4,0.7-1,1-1.2
						c4.1-2.4,8.3-5.1,8.3-5.1c0.8-0.7-0.2-0.2-0.2-0.2c-1.8,0.8-8.1,4.4-8.7,4.7c-0.5,0.3-1.1,0.7-1.4,0.2c-0.3-0.4,0.5-0.8,0.8-1
						c4.3-2.5,7.9-4.8,8.5-5.3c0.7-0.5-0.1-0.3-0.1-0.3c-4.6,2-11,5.7-11,5.7c-2.8,1.6-3.1,2.2-3.5,3.3c-0.9,2.6-5.9,5.3-6.6,5.7
						c-1.2,0.7-2.5,1.4-3.8,2.1c-0.1,0.1-0.3,0.1-0.4,0.2c0.2,0.1,0.4,0.2,0.5,0.3l1.3,0.7c1.1-0.6,2.1-1.3,3.2-1.9
						c0.7-0.4,5.6-3.4,8.2-2.9c1.2,0.2,1.8,0.3,4.6-1.4c0,0,6.4-3.6,10.4-6.6C314.7,71.9,315.3,71.3,314.5,71.6z"/>
				</g>
			</g>
			<path fill="#333333" d="M295.3,56.3v-2.6h-2.2v-2.2h-2.2v-2h-2.2v-1h-2.2h-2.2h-2.2v1H280v2h-2.2v2.2h-2.2v2.6h-2.2v14.6h2.2v2.6
				h2.2v4.9h2.2v-2.6h2.2v2.6h2.2v-1.5h2.2v1.5h2.2v-2.6h2.2v2.6h2.2v-4.9h2.2v-2.6h2.2V56.3H295.3z M280,67.8h-2.2v0h-2.2v-4h2.2
				v-2.1h2.2v0h2.2v6L280,67.8L280,67.8z M288.7,72.3h-2.2v0h-2.2v0h-2.2V70h2.2v-1.6h2.2V70h2.2V72.3z M295.3,67.8h-2.2v0h-2.2v0
				h-2.2v-6h2.2v0h2.2v2.1h2.2V67.8z"/>
		</g>
		<rect x="83.9" y="82.8" fill="#333333" width="1" height="1"/>
		<rect x="83" y="82.8" fill="#333333" width="1" height="1"/>
		<rect x="81" y="82.8" fill="#333333" width="1" height="1"/>
		<rect x="79.1" y="82.8" fill="#333333" width="1" height="1"/>
		<rect x="79.1" y="82.8" fill="#333333" width="1" height="1"/>
		<rect x="78.1" y="82.8" fill="#333333" width="1" height="1"/>
		<rect x="76.2" y="82.8" fill="#333333" width="1" height="1"/>
		<rect x="74.2" y="82.8" fill="#333333" width="1" height="1"/>
		
			<rect x="524.8" y="82.8" transform="matrix(-1 -1.224647e-16 1.224647e-16 -1 1050.5902 166.5898)" fill="#333333" width="1" height="1"/>
		
			<rect x="515.1" y="85.4" transform="matrix(-1 -1.224647e-16 1.224647e-16 -1 1031.1938 171.7147)" fill="#333333" width="1" height="1"/>
		
			<rect x="516.1" y="85.4" transform="matrix(-1 -1.224647e-16 1.224647e-16 -1 1033.1296 171.7147)" fill="#333333" width="1" height="1"/>
		
			<rect x="518" y="85.4" transform="matrix(-1 -1.224647e-16 1.224647e-16 -1 1037.0013 171.7147)" fill="#333333" width="1" height="1"/>
		
			<rect x="520" y="85.4" transform="matrix(-1 -1.224647e-16 1.224647e-16 -1 1040.9109 171.7147)" fill="#333333" width="1" height="1"/>
		
			<rect x="520" y="85.4" transform="matrix(-1 -1.224647e-16 1.224647e-16 -1 1040.8732 171.7147)" fill="#333333" width="1" height="1"/>
		
			<rect x="520.9" y="85.4" transform="matrix(-1 -1.224647e-16 1.224647e-16 -1 1042.8468 171.7147)" fill="#333333" width="1" height="1"/>
		
			<rect x="522.9" y="85.4" transform="matrix(-1 -1.224647e-16 1.224647e-16 -1 1046.7185 171.7147)" fill="#333333" width="1" height="1"/>
		
			<rect x="524.8" y="85.4" transform="matrix(-1 -1.224647e-16 1.224647e-16 -1 1050.5902 171.7147)" fill="#333333" width="1" height="1"/>
		<rect x="74.2" y="85.4" fill="#333333" width="1" height="1"/>
		<g>
			<path fill="#333333" d="M85.9,82.8v1h177.8c-0.4-0.3-0.9-0.6-1.3-1H85.9z"/>
			<path fill="#333333" d="M523.8,83.8v-1H294.7c-0.5,0.3-1.2,0.6-1.8,1H523.8z"/>
			<path fill="#333333" d="M291,86.3h223.2v-1h-224c-0.1,0.1-0.3,0.2-0.4,0.2L291,86.3z"/>
			<path fill="#333333" d="M76.2,85.4v1h191.1c-0.5-0.3-1-0.6-1.4-1H76.2z"/>
		</g>
	</g>
</g>
</svg>
