<svg width="18" height="16" viewBox="0 0 18 16" fill="none" xmlns="http://www.w3.org/2000/svg">
<path d="M0.250002 15.9915C0.314036 16.0082 0.382066 15.999 0.439345 15.9658C0.496625 15.9327 0.538539 15.8783 0.556002 15.8145C1.071 13.893 3.164 13.395 4.415 13.097C4.7285 13.0225 4.976 12.9635 5.137 12.894C6.562 12.2755 7.0265 11.2805 7.1655 10.5545C7.17377 10.5113 7.17049 10.4667 7.15601 10.4252C7.14152 10.3836 7.11634 10.3467 7.083 10.318C6.341 9.6775 5.715 8.716 5.32 7.61C5.30886 7.57828 5.29133 7.54918 5.2685 7.5245C4.746 6.9565 4.446 6.356 4.446 5.8775C4.446 5.598 4.5515 5.4105 4.789 5.269C4.82458 5.24773 4.85431 5.21795 4.87552 5.18234C4.89673 5.14673 4.90875 5.10641 4.9105 5.065C5.021 2.518 6.835 0.512999 9.06 0.499999L9.1135 0.503499C11.3495 0.534499 13.152 2.5825 13.2165 5.1655C13.2174 5.20081 13.2258 5.23552 13.2412 5.26732C13.2565 5.29913 13.2784 5.32732 13.3055 5.35C13.462 5.4825 13.535 5.6505 13.535 5.8785C13.535 6.279 13.3215 6.7715 12.9345 7.2645C12.9161 7.28822 12.9019 7.31494 12.8925 7.3435C12.4925 8.6115 11.7745 9.731 10.9235 10.416C10.8883 10.4445 10.8614 10.482 10.8457 10.5245C10.83 10.567 10.8262 10.613 10.8345 10.6575C10.9735 11.383 11.438 12.3775 12.863 12.997C13.0315 13.07 13.293 13.127 13.6245 13.1985C14.863 13.4665 16.9355 13.916 17.444 15.8145C17.4525 15.8462 17.4672 15.8759 17.4873 15.902C17.5073 15.928 17.5322 15.9498 17.5607 15.9662C17.5892 15.9826 17.6206 15.9932 17.6531 15.9975C17.6857 16.0017 17.7188 15.9995 17.7505 15.991C17.7822 15.9825 17.8119 15.9678 17.838 15.9477C17.864 15.9277 17.8858 15.9028 17.9022 15.8743C17.9186 15.8458 17.9292 15.8144 17.9335 15.7819C17.9377 15.7493 17.9355 15.7162 17.927 15.6845C17.3395 13.491 14.9915 12.9825 13.7305 12.7095C13.438 12.646 13.1855 12.5915 13.0625 12.5375C12.1325 12.1335 11.5595 11.518 11.357 10.705C12.2205 9.9635 12.943 8.8195 13.356 7.5365C13.7945 6.9665 14.0355 6.3795 14.0355 5.878C14.0355 5.5435 13.9275 5.2645 13.7135 5.0465C13.5945 2.2445 11.595 0.0379992 9.1135 0.00249918L9.039 0.00149918C6.6025 0.0144992 4.5945 2.163 4.419 4.9165C4.106 5.1465 3.947 5.469 3.947 5.8785C3.947 6.47 4.2815 7.1775 4.867 7.8265C5.2715 8.938 5.8985 9.9145 6.645 10.598C6.4435 11.414 5.87 12.0315 4.938 12.436C4.8175 12.4885 4.5775 12.546 4.2995 12.612C3.029 12.914 0.665002 13.4765 0.0730025 15.6855C0.0559057 15.7495 0.0649478 15.8178 0.0981403 15.8751C0.131333 15.9325 0.185958 15.9744 0.250002 15.9915V15.9915Z" fill="white"/>
</svg>
