<?xml version="1.0" encoding="UTF-8"?>
<!DOCTYPE svg PUBLIC "-//W3C//DTD SVG 1.1//EN" "http://www.w3.org/Graphics/SVG/1.1/DTD/svg11.dtd">
<!-- Creator: CorelDRAW 2020 (64-Bit) -->
<svg xmlns="http://www.w3.org/2000/svg" xml:space="preserve" width="28.7866mm" height="30.4798mm" version="1.1" style="shape-rendering:geometricPrecision; text-rendering:geometricPrecision; image-rendering:optimizeQuality; fill-rule:evenodd; clip-rule:evenodd"
viewBox="0 0 2878.66 3047.98"
 xmlns:xlink="http://www.w3.org/1999/xlink"
 xmlns:xodm="http://www.corel.com/coreldraw/odm/2003">
 <defs>
  <style type="text/css">
   <![CDATA[
    .fil31 {fill:none}
    .fil30 {fill:#FEFEFE}
    .fil23 {fill:#FCD942}
    .fil6 {fill:#FEFEFE;fill-rule:nonzero}
    .fil0 {fill:#FDE4D3;fill-rule:nonzero}
    .fil10 {fill:#FDD8BE;fill-rule:nonzero}
    .fil8 {fill:#F9CADE;fill-rule:nonzero}
    .fil12 {fill:#FBAF31;fill-rule:nonzero}
    .fil9 {fill:#F5ABCB;fill-rule:nonzero}
    .fil1 {fill:#F7A397;fill-rule:nonzero}
    .fil24 {fill:#F69C9B;fill-rule:nonzero}
    .fil26 {fill:#F58334;fill-rule:nonzero}
    .fil4 {fill:#F180B2;fill-rule:nonzero}
    .fil5 {fill:#EF66A5;fill-rule:nonzero}
    .fil18 {fill:#FADAB1;fill-rule:nonzero}
    .fil11 {fill:#FAE32B;fill-rule:nonzero}
    .fil15 {fill:#F1F1F0;fill-rule:nonzero}
    .fil29 {fill:#EBA187;fill-rule:nonzero}
    .fil19 {fill:#E9B38F;fill-rule:nonzero}
    .fil17 {fill:#E5E6E7;fill-rule:nonzero}
    .fil16 {fill:#D2D4D4;fill-rule:nonzero}
    .fil27 {fill:#BE785C;fill-rule:nonzero}
    .fil28 {fill:#AB6048;fill-rule:nonzero}
    .fil20 {fill:#AF8357;fill-rule:nonzero}
    .fil21 {fill:#A17350;fill-rule:nonzero}
    .fil25 {fill:#783B3F;fill-rule:nonzero}
    .fil7 {fill:#9F7471;fill-rule:nonzero}
    .fil22 {fill:#482F2E;fill-rule:nonzero}
    .fil3 {fill:#684E4A;fill-rule:nonzero}
    .fil2 {fill:#6E5652;fill-rule:nonzero}
    .fil13 {fill:#3DB988;fill-rule:nonzero}
    .fil14 {fill:#2D956C;fill-rule:nonzero}
   ]]>
  </style>
 </defs>
 <g id="Layer_x0020_1">
  <metadata id="CorelCorpID_0Corel-Layer"/>
  <g id="_2499391015472">
   <path class="fil0" d="M2002.11 1840.48c-7.34,-130.2 -119.27,-250.63 -213.58,-326.15 -114.69,-91.86 -244.73,-164.88 -348.32,-270.24 -40.08,-40.78 -73.49,-98.44 -130.14,-118.01 -40.97,-14.17 -96.96,-6.81 -114.77,37.83 -4.06,10.24 -3.95,22.02 4.04,30.33 -68.01,98.03 -147.63,190.11 -234.48,271.47 -46.21,43.29 -94.79,84.18 -145.86,121.61 -43.51,31.92 -99.01,57.38 -137.27,95.31 -14.57,14.44 -17.88,32.84 -29.57,49.03 -14.01,19.39 -30.94,29.86 -41.86,52.78 -19.99,42 -21.3,93.99 -16.34,139.41 9.72,89.13 58.61,130.87 132.08,146.77 15.3,9.86 31.63,11.36 51.96,6.98 23.22,43.85 57.99,77.52 98.01,104.91 6.07,6.59 12.07,13.24 18.18,19.79 7.24,8.24 16.19,9.17 23.97,6.03 28.52,15.76 58.34,29.41 87.61,42.07 104.5,45.17 207.75,57.8 321.74,67.72 106.17,9.21 225.92,-33.71 315.13,-86.18 77.06,-45.3 114.55,-85.44 157.57,-162.5 103.41,-9.84 208.86,-105.03 201.9,-228.96z"/>
   <path class="fil1" d="M1190.5 1186.67c-117.63,203.32 -271,373.36 -480.6,484.58 -23.41,12.43 -9.5,42.41 11.88,44.3 -4.09,1.95 -7.14,5.42 -7.57,10.55 -0.52,6.25 3.54,13.57 10.35,14.56 17.97,2.56 34.63,-8.09 44.34,-22.53 4.93,-7.29 -0.64,-15.58 -7.72,-18.36 205.03,-106.57 379.15,-282.86 459.6,-501.82 6.57,-17.9 -21.44,-26.58 -30.28,-11.28z"/>
   <path class="fil1" d="M659.9 1918.71c-3.91,-2.06 -7.64,-2.65 -11.1,-2.35 0.73,-1.82 1.79,-2.49 -0.25,-1.34 3.97,-2.21 4.83,-8.64 1.22,-11.6 -3.06,-2.52 -6.4,-4.12 -9.74,-4.85 -2.74,-1.79 -6.07,-2.74 -9.69,-1.96 -66.55,14.6 4.76,142.71 62.1,107.46 4.27,-2.62 6.31,-7.59 6.32,-12.48 14.81,-27.4 -15.19,-60.5 -38.86,-72.88z"/>
   <path class="fil1" d="M1959.19 1909.81c-2.19,-12.03 -10.93,-24.22 -23.97,-25.25 -5.5,-0.43 -10.69,1.25 -15.26,4.25 -2.98,1.95 -7.18,8.26 -10.44,9.52 -5.2,2.01 -8.22,5.76 -9.51,9.92 -14.77,6.27 -27.27,17.93 -35.2,32.35 -7.28,13.25 -9.51,29.55 3.17,40.28 13.16,11.1 31.8,4.81 45.11,-2.67 22.17,-12.42 51.21,-40.53 46.1,-68.4z"/>
   <path class="fil1" d="M1302.99 1781.54c-5.97,-3.78 -13.17,-5.1 -20.16,-4.35 -9.96,-2.92 -22.01,4.97 -24.44,15.16 -2.91,12.37 6,24.33 18.13,26.91 12.03,2.58 22.76,-3.22 30.77,-11.8 7.75,-8.32 4.7,-20.22 -4.3,-25.92z"/>
   <path class="fil2" d="M1802.01 999.45c-213.18,-219.02 -553.77,-213.96 -813.38,-102.51 -89.35,15.39 -174.65,68.36 -245.67,121.95 -81.56,61.56 -133.5,140.46 -174.62,232.9 -41.33,92.93 -72.37,190.9 -77.64,293.05 -5.64,109.19 28.28,194.89 89.69,282.78 4.31,6.18 15.4,7.61 18.85,-0.55 16.7,-39.53 62.94,-89.61 111.73,-76.29 21.98,5.97 30.27,-17.34 23.87,-32.35 4.76,-2.33 9.38,-4.83 13.7,-7.3 8.76,-4.99 10.17,-13.53 7.33,-20.67 14.55,-10.25 28.5,-21.36 41.99,-33.02 11.43,-9.88 4.76,-25.8 -6.45,-31.69 75.03,-59.31 144.4,-126.49 211.93,-194.25 6.24,-6.15 12.41,-12.34 18.52,-18.61 16.71,-16.83 33.34,-33.63 49.93,-50.32 2.54,-2.56 3.76,-5.33 4.04,-8.05 40.75,-46.55 78.4,-95.33 112.5,-145.41 -11.4,162.71 -3.48,331.29 66.75,480.13 6.79,14.36 29.05,5.97 28.48,-8.44 -6.15,-156.59 3.46,-345.13 25.57,-497.91 59.5,88.87 152.62,203.01 231.61,276.09 97.87,90.57 193.71,173.85 304.5,248.25 -0.41,2.05 -0.97,4.06 -1.34,6.13 -3.47,17.34 11.64,29.66 27.99,26.35 29.82,-6.01 53.79,1.66 78.66,15.19 -7.32,24.57 27.22,42.21 40.98,17.73 148.82,-264.66 4.62,-573.72 -189.52,-773.18z"/>
   <path class="fil3" d="M1182.36 1186.59c-32.43,31.2 -64.32,63.03 -98.64,92.2 -30.59,26.03 -63.51,48.93 -97.34,70.54 -104,66.49 -263.23,152.71 -382.25,72.79 -33.38,-22.41 -55.73,-53.28 -68.69,-87.96 -24.15,67.94 -41.01,138.23 -44.74,210.68 -5.64,109.19 28.28,194.89 89.69,282.78 4.31,6.18 15.4,7.61 18.85,-0.55 16.7,-39.53 62.94,-89.61 111.73,-76.29 21.98,5.97 30.27,-17.34 23.87,-32.35 4.76,-2.33 9.38,-4.83 13.7,-7.3 8.76,-4.99 10.17,-13.53 7.33,-20.67 14.55,-10.25 28.5,-21.36 41.99,-33.02 11.43,-9.88 19.87,-21.79 8.65,-27.69 75.04,-59.31 127.96,-107.16 195.49,-174.91 6.23,-6.16 13.75,-35.68 19.86,-41.95 16.71,-16.83 33.34,-33.63 49.93,-50.32 2.54,-2.56 3.76,-5.33 4.04,-8.05 39.25,-44.84 75.56,-91.79 108.64,-139.94 -0.39,-9.28 -0.79,-19.08 -2.11,-27.99z"/>
   <path class="fil3" d="M1298.49 1267.96c-9.96,25.92 -25.58,52 -54.14,59.86 -20.51,5.64 -36.72,-6.32 -44.95,-24.53 -8.62,-19.05 -11.22,-40.67 -13.05,-61.6 -8.07,152.5 3.17,308.61 68.73,447.55 6.79,14.36 29.05,5.97 28.48,-8.44 -5.05,-128.59 0.53,-278.66 14.93,-412.84z"/>
   <path class="fil3" d="M1993.33 1277.02c-7.16,17.09 -17.4,32.56 -32.03,44.96 -48.46,41.08 -138.96,39.25 -188.68,-2.86 -6.14,27.02 -22.15,49.58 -51.74,58.05 -34.55,9.9 -73.47,0.88 -106.74,-9.77 -44.9,-14.36 -87.72,-35.55 -128.41,-59.18 -39.56,-23 -77.67,-48.87 -113.04,-77.96 -17.2,-14.15 -36.48,-29.97 -50.82,-48.43 -1.46,4.63 -2.63,9.38 -3.87,14.1 59.63,86.76 147.54,193.48 222.74,263.05 97.87,90.57 193.71,173.85 304.5,248.25 -0.41,2.05 -0.97,4.06 -1.34,6.13 -3.47,17.34 11.64,29.66 27.99,26.35 29.82,-6.01 53.79,1.66 78.66,15.19 -7.32,24.57 27.22,42.21 40.98,17.73 90.16,-160.34 72.67,-336.92 1.8,-495.61z"/>
   <path class="fil4" d="M1212.38 2019.95c31.05,15.33 66.77,28.95 99.45,20.71 0.78,-0.99 1.57,-1.97 2.32,-3 9.83,-5.56 18.25,-14 24.03,-26.01 11.28,-23.44 13.88,-57.08 11.56,-88.37 4.81,-13.96 5.79,-29.21 0.39,-43.17 -4.16,-10.81 -6.65,-31.25 -16.17,-37.15 -26.31,-1.93 -78.96,-1.65 -106.75,-3.17 -8.72,-0.47 -14.1,6.18 -15.54,13.65 -0.69,1.36 -1.24,2.84 -1.48,4.61 -3.06,23.42 -8.38,50.3 -10.55,77.07 -3.75,21.81 -3.99,44.18 4.1,63.33 2.09,7.52 4.93,14.7 8.64,21.5z"/>
   <path class="fil5" d="M1354.98 1935.33c-15.62,-34 4.4,-77.69 -39.29,-94.26 -28.1,-10.67 -70.1,-19.05 -89.82,8.6 -14.61,20.51 -31.72,61.72 -7,80.61 -7.95,7.46 -13.55,17.54 -15.29,31.21 -1.24,9.82 12.98,17.24 17.67,6.58 16.32,-37.08 96.38,-33.43 113.1,-10.84 9.63,13.02 27.04,-7.93 20.63,-21.9z"/>
   <path class="fil6" d="M1321.26 1845.63c-11.41,-4.91 -19.75,1.58 -31.96,1.14 -14.59,-0.53 -28.93,-1.24 -43.33,-3.88 -12.49,-2.29 -18.17,20.69 -6.21,24.47 23.53,7.48 61.83,12.13 83.57,-4.14 3.88,-2.91 3.35,-15.26 -2.07,-17.59z"/>
   <path class="fil6" d="M690.38 1799.08c-5.3,-20.45 -33.67,-16.71 -42.67,-1.22 -6.92,3.06 -11.42,11.04 -10.95,19.07 0.62,10.81 9.3,19.84 19.81,21.7 11.78,2.07 22.76,-3.32 29.02,-13.28 4.47,-7.1 6.93,-17.98 4.79,-26.27z"/>
   <path class="fil6" d="M633.26 1834.78c-1.69,-1.44 -3.74,-2.35 -6.02,-2.27 -2.16,0.06 -4.39,1.07 -5.87,2.63 -1.05,1.12 -1.74,2.4 -2.08,3.88 -0.32,1.44 -0.28,2.86 0.12,4.28 0.26,1.28 0.53,2.57 0.79,3.85 0.26,0.61 0.53,1.2 0.79,1.79 0.52,0.93 1.23,1.66 2.12,2.19 1.31,0.93 2.96,1.58 4.61,1.46 3.32,-0.23 6.48,-2.48 7.18,-5.88 0.27,-1.3 0.53,-2.6 0.79,-3.9 0.58,-2.82 -0.17,-6.08 -2.43,-8.03z"/>
   <path class="fil7" d="M735.46 1222.81l-0.42 0.28c-3.22,0.5 -6.13,2.1 -8.32,5.12 6.26,-14.51 10.54,-29.68 11.47,-45.37 2.41,-40.73 -22.76,-90.32 -70.47,-71.19 -24.13,9.67 -40.8,32.69 -52.5,58.15 -17,20.9 -29.31,46.98 -37.15,70.04 -10.2,29.93 -26.2,82.78 7.54,103.99 34.09,21.46 72.48,-21.28 92.88,-44.16 12.52,-14.04 24.86,-29.72 35.15,-46.54 -1.65,5.2 -2.79,10.42 -3.28,15.21 -0.77,7.65 1.43,14.58 8.07,19.05 5.7,3.84 15.05,4.94 20.82,0.25 9.98,-8.12 19.39,-18.29 21.15,-31.61 4.28,-4.01 6.88,-9.87 6.42,-16.26 -1.08,-15.37 -18.08,-24 -31.36,-16.96z"/>
   <path class="fil7" d="M768.57 1276.82c-15.06,0 -14.33,23.33 0.69,23.33 15.06,0 14.33,-23.33 -0.69,-23.33z"/>
   <path class="fil7" d="M1976.35 1224.49c-12.09,-35.04 -35.15,-68.39 -66.65,-88.63 -13.33,-8.56 -30.46,-11.72 -44.18,-7.69 -25.8,-5.36 -47.99,16.08 -47.77,44.36 0.08,12.99 3.66,26.84 9.64,40.56 -5.82,-1.48 -12.13,0.38 -16.78,4.12 -1.56,0.49 -3.1,1.11 -4.5,1.97 -10.85,6.59 -12.19,19.01 -7.22,29.58 6.59,14.04 12.74,37.17 27.89,43.77 8.03,3.49 16.39,1.95 21.85,-3.52 1.39,0.47 2.71,1 4.11,1.41 11.67,3.46 20.57,-3.49 24,-12.83 22.61,18.71 48.9,31.02 73.87,30.26 44.3,-1.34 35.66,-54.63 25.74,-83.36z"/>
   <path class="fil7" d="M1804.25 1285.83c-3.88,-11.74 -10.15,-22.54 -15.75,-33.55 -3.34,-6.53 -12.73,-8.16 -18.66,-4.55 -6.57,4 -8.03,12.17 -4.56,18.66 5.31,9.89 10.1,20.25 16.83,29.24 3.62,4.86 9.48,7.44 15.34,4.73 5.31,-2.46 8.76,-8.65 6.8,-14.53z"/>
   <path class="fil7" d="M1751 1296.77c-1.01,-4.4 -2.01,-8.8 -3.02,-13.21 -0.96,-4.14 -5.88,-6.47 -9.78,-5.33 -4.16,1.23 -6.45,5.67 -5.35,9.78 1.19,4.35 2.37,8.7 3.55,13.06 1.09,3.96 5.57,6.28 9.45,5.14 4.14,-1.22 6.06,-5.43 5.15,-9.44z"/>
   <path class="fil7" d="M1686.27 1311.82c-5.57,-8.33 -11.15,-16.67 -16.71,-25 -5.7,-8.52 -14.99,-9.06 -21.89,-5.32 -6.49,-2.18 -13.63,-1.24 -19.17,4.93 -2.43,2.71 -5.59,7.97 -7.32,13.42l-0.14 -0.03c-6.65,-1.97 -13.29,-3.91 -19.84,-6.12 -7.79,-2.62 -16.59,5.28 -15.96,13.08 1.14,13.82 2.29,33.07 14.16,41.92 5.66,4.22 15.17,3.2 16.69,-5.05 0.55,-3.06 0.59,-6.1 0.33,-9.15 7.75,4.57 15.92,7.71 24.48,6.34 5.47,-0.88 10.28,-3.65 13.93,-7.55 4.08,1.95 8.3,3.59 12.7,4.48 14,2.81 27.34,-13.08 18.74,-25.95z"/>
   <path class="fil7" d="M1556.27 1317.34c-14.36,0 -13.67,22.25 0.65,22.25 14.36,0 13.67,-22.25 -0.65,-22.25z"/>
   <path class="fil7" d="M870.84 1308.82c-5.23,-3.84 -10.28,-5.13 -15.66,-4.92 -2.47,-12.74 -17.42,-19.94 -29.88,-9.19 -7.39,6.35 -13.35,14.29 -17.76,22.96 -2.75,5.41 -2.48,10.4 -0.52,14.45 -0.27,14.63 14.41,24.49 29.72,17.67 12.82,-5.74 35.28,-11.2 38.34,-27 0.89,-4.65 -0.12,-10.93 -4.24,-13.97z"/>
   <path class="fil7" d="M941.17 1333.94c-2.62,-7.7 -11,-13.21 -19.21,-10.48 -3.27,1.1 -6.56,2.19 -9.84,3.28 -3.9,1.3 -7.38,3.94 -9.31,7.61 -1.75,3.29 -2.41,8.03 -1.16,11.61 2.62,7.71 11,13.22 19.21,10.48 3.27,-1.09 6.57,-2.19 9.84,-3.28 3.91,-1.3 7.38,-3.92 9.31,-7.61 1.76,-3.29 2.39,-8.03 1.16,-11.61z"/>
   <path class="fil7" d="M991.33 1355.85c-1.1,0.53 -2.19,1.04 -3.27,1.55 -3.75,-8.26 -13.85,-10.97 -21.52,-4.14 -7.46,6.63 -14.91,13.27 -22.37,19.9 -10.16,9.05 4.36,27.3 15.25,18.84 1.06,-0.83 2.13,-1.66 3.2,-2.49 4.37,4.03 11.24,5.72 16.96,2.49 8.34,-4.76 16.66,-9.57 25.01,-14.34 14.51,-8.33 1.24,-28.74 -13.26,-21.81z"/>
   <path class="fil7" d="M1240.13 1357.74c-2.19,-2.61 -5.44,-4.4 -8.85,-4.3 -3.26,0.1 -6.1,1.73 -8.07,4.1 -1.96,0.97 -3.81,2.13 -5.43,3.84 -3.19,3.4 -5.5,8.86 -5.16,13.59 0.69,9.53 7.45,17.26 17.14,18.21 9.01,0.89 18.65,-5.17 20.37,-14.5 1.74,-9.29 -2.47,-16.7 -10,-20.94z"/>
   <path class="fil7" d="M1259.91 1363.99c-0.67,-2.01 -3.78,-1.62 -3.72,0.59 0.21,6.87 -0.28,14.12 1.49,20.75 1.19,4.4 8.43,3.4 7.99,-1.26 -0.63,-6.9 -3.57,-13.53 -5.76,-20.08z"/>
   <path class="fil7" d="M1550.09 1355.35c-7.39,-14 -19.56,-25.16 -30.11,-36.86 -5.11,-5.67 -15.04,-4.63 -19.97,0.6 -3.62,3.86 -4.22,8.71 -2.94,13.22 -0.55,-0.68 -1.1,-1.35 -1.65,-2.03 -4.64,-5.62 -14.56,2.34 -10.04,8.13 4.3,5.52 8.58,11.04 12.88,16.57 2.5,3.19 6.61,4.47 10.04,1.69 2.31,-1.87 2.76,-4.38 2.11,-6.76 1.95,2.15 3.92,4.32 5.87,6.49 5.59,6.19 11.05,11.06 18.01,15.72 10.58,7.08 20.79,-7.34 15.8,-16.77z"/>
   <path class="fil8" d="M1510.07 2500.37c-16.94,-64.4 -27.81,-129.02 -33.49,-195.37 -0.71,-8.26 -9.41,-17.24 -18.48,-13.39 -37.6,15.91 -75.5,24.12 -114.12,23.31 -5.58,-1.4 -11.26,-2.6 -17.14,-3.39 -4.12,-0.58 -7.99,-0.16 -11.48,0.96 -13.67,-1.85 -27.44,-4.67 -41.32,-8.89 -12.51,-3.79 -20.34,16.49 -8.09,21.71 10.87,4.64 21.89,8.41 32.96,11.49 0.53,4.77 2.7,9.62 6.94,13.96 41.22,42.07 54.4,99.62 24.85,152.07 -9.11,16.13 7.42,32.33 23.57,28.86 46.89,-10.1 91.05,-10.93 138.64,-7.65 12.33,0.84 19.92,-13.16 17.16,-23.67z"/>
   <path class="fil8" d="M2013.21 2180.72c-2.56,-14.73 -20.69,-17.81 -31.67,-12.27 -62.81,31.74 -144.56,32.63 -212.69,48.35 -69.47,16.03 -137.97,36.25 -205.4,59.31 -9.23,-9.2 -27.54,-6.1 -27.09,10.74 1.86,69.12 7.74,141.52 29.81,207.48 2.76,8.28 11,15.38 20.21,14.65 119.79,-9.54 223.93,-61.85 331.78,-110.69 34.95,-15.83 96.67,-28.65 112.35,-66.39 15.34,-36.94 -10.51,-112.28 -17.3,-151.18z"/>
   <path class="fil9" d="M1458.67 2315c-22.8,9.88 -39.96,18.07 -65.32,20.97 -24.23,2.76 -51.68,11.14 -75.37,3.19 -13.1,-4.4 -18.85,15.19 -8.08,21.7 27.8,16.78 57.81,15.64 88.67,7.81 24.54,-6.23 57.68,-17.52 70.24,-41.26 3.18,-6.02 -2.98,-15.51 -10.14,-12.41z"/>
   <path class="fil9" d="M1486.88 2492.1c-10.95,-23.21 -41.15,-40.57 -61.56,-55.27 -22.76,-16.34 -47.44,-27.09 -71.44,-41.04 -11.21,-6.49 -23.85,10.45 -13.47,18.82 21.48,17.33 40.59,36.35 63.45,52.21 21.36,14.81 44.1,37.41 69.23,44.35 11.6,3.2 18.13,-9.88 13.79,-19.07z"/>
   <path class="fil9" d="M1993.49 2284.76c-60.65,41.07 -154.86,59.77 -225.76,75.03 -79.06,17.03 -170.99,9.85 -208.58,-73.15 -5.7,-12.63 -28.19,-5.9 -26.18,7.75 1.54,10.39 4.18,20.1 7.62,29.21 -0.73,2.52 -0.95,5.23 -0.38,8.01 5.09,24.63 10.85,48.4 17.79,71.73 -0.51,2.37 -0.59,4.95 -0.02,7.75 3.08,15.59 6.18,31.19 9.17,46.79 2.63,13.79 3.16,28.62 14.66,38.2 9.09,7.56 19.01,6.28 25.46,0.6 4.42,0.77 8.96,0.65 12.88,-0.5 130.67,-37.94 292.81,-67.04 399.91,-156.35 3.47,-2.88 4.97,-6.57 5.06,-10.33 23.38,-18.41 -2.26,-64.64 -31.63,-44.74z"/>
   <path class="fil10" d="M2225.25 2194.09c-9.24,-24.02 -20.34,-46.35 -46.63,-43.91 -16.91,1.56 -29.1,11.66 -37.34,24.9 -2.33,1.22 -4.54,2.64 -6.69,4.26 0.81,-4.24 1.11,-8.84 0.47,-13.99 -3.31,-27.06 -30.47,-43.66 -56.11,-39.72 -34.87,5.35 -45.09,37.69 -54,67 -0.73,2.39 -0.56,4.52 -0.06,6.53 -2.01,10.33 -3.16,20.87 -3.67,30.89 -1.7,32.21 -4.87,70.26 20.99,93.71 9.38,8.52 24.97,7.85 33.72,-0.57 -0.51,-0.87 -1.1,-1.72 -1.3,-2.77 -3.55,-18.32 -7.69,-36.68 -8.11,-55.44 -0.43,-19.74 3.83,-42.25 22.41,-52.88 2.33,-1.32 4.54,-1.54 6.63,-1.34 0.61,-0.75 1.16,-1.54 1.81,-2.25 3.95,-4.24 9.15,-4.2 13.3,-1.84 1.65,-0.66 3.27,-1.41 4.85,-2.24 -0.65,1.54 -1.14,3.17 -1.7,4.77 1.2,1.28 2.25,2.76 2.92,4.44 6.39,16.09 3.08,33.04 6.39,49.56 2.92,14.48 9.73,28.66 17.1,41.56 7.26,4.2 15.74,6.69 25.47,6.73 54.78,0.25 77.6,-70.55 59.55,-117.4z"/>
   <path class="fil11" d="M843.74 2696.05c-3.46,-13.63 -9.15,-26.28 -15.64,-38.58 -2.15,-0.34 -4.28,-1.24 -6.19,-3.42 -27.5,-31.77 -57.6,-73.39 -60.56,-117.23 -4.75,-2.29 -10.49,-1.84 -15.08,3.68 -51.95,62.43 -34.08,166.12 44.45,198.58 32.43,13.4 62.19,-6.68 53.02,-43.03z"/>
   <path class="fil12" d="M843.74 2696.05c-3.46,-13.63 -9.15,-26.28 -15.64,-38.58 -2.15,-0.34 -4.28,-1.24 -6.19,-3.42 -27.5,-31.77 -57.6,-73.39 -60.56,-117.23 -4.75,-2.29 -10.49,-1.84 -15.08,3.68 -7.02,8.45 -12.66,17.68 -17.15,27.34 25.73,23.91 41.33,58.7 47.98,92.6 4.59,23.36 5.64,48.59 0.55,72.21 4.17,2.35 8.49,4.54 13.07,6.43 32.43,13.4 62.19,-6.68 53.02,-43.03z"/>
   <path class="fil1" d="M2108.44 2155.29c-6.21,28.11 -33.04,26.3 -53.2,38.25 -9.58,5.68 -13.33,14.1 -17.77,24.54 -12.33,28.87 -22.17,65.24 -9.31,95.38 5.59,13.06 25.03,14.84 28.9,-0.85 3.92,-16.01 3.15,-32.4 4.46,-48.79 2.01,-25.45 1.87,-41.11 26.05,-51.74 23.83,-10.45 42.23,-23.43 46.81,-50.81 2.8,-16.73 -22.2,-22.88 -25.94,-5.98z"/>
   <path class="fil1" d="M2193.07 2276.6c-8.95,-15.19 -21.38,-23.93 -25.14,-42.17 -4.38,-21.2 -4.44,-44.17 -4.34,-65.74 0.08,-13.93 -22.1,-20.32 -27.62,-6.43 -12.32,31.04 -19.11,66.49 -6.09,98.6 9.37,23.11 33.31,47.2 59.19,32.15 5.64,-3.28 7.24,-10.93 4,-16.41z"/>
   <path class="fil13" d="M1631.14 2771.94c-36.53,-157.69 -53.79,-319.98 -94.34,-476.31 -5.48,-21.18 -32.72,-18.34 -40.14,-1.73 -11.24,-4.76 -27.91,1.71 -25.84,16.35 4.63,32.46 8.98,64.97 13.16,97.49 4.04,31.46 2.15,67.58 9.78,98.17 0.26,4.02 0.51,8.05 0.77,12.07 -0.79,0.16 -1.56,0.29 -2.48,0.49 -14.66,2.53 -30.56,1.3 -45.45,1.98 -36.39,1.63 -72.72,3.07 -109.13,3.78 -17.77,0.34 -23.34,18.01 -17.66,30.42 -19.6,42.56 -45.95,78.28 -74.87,113.39 -24.2,14.53 -50.83,25.92 -77.1,35.21 -64.57,22.82 -131.67,29.6 -199.64,23.55l-0.04 -0.12c-4.66,-15.44 -30.52,-12.43 -28.72,4.58 3.65,34.39 -19.11,68.58 -17.18,103.64 0.59,10.87 11.22,18.41 20.97,18.09 41.38,31.03 104.06,38.03 152.89,46.41 68.21,11.7 138.92,18.82 208.14,19.61 107.41,1.22 248,-37.18 335,-112.9 12.86,-11.19 4.09,-29.45 -8.12,-34.17z"/>
   <path class="fil14" d="M1499.28 2292.26c-1.44,-16.35 -25.44,-12.03 -22.48,6.92 8.52,54.46 10.85,114.91 17.97,169.59 5.38,41.42 3.55,52.74 -43.42,57.49 -33.31,3.38 -65.93,0.83 -98.83,-4.83 -10.46,-1.79 -24.89,2.27 -29.21,13.36 -56.67,145.42 -197.28,205.22 -345.59,170.55 -38.73,-9.06 -50.19,47.1 -13.65,59.27 164.27,54.75 325.55,-52.49 393.42,-202.61 64.04,-9.09 162.54,-3.45 169.45,-13.82 3.47,-5.19 -22.47,-197.13 -27.66,-255.92z"/>
   <path class="fil15" d="M1350.57 2424.88c-9.61,-44.63 -51.56,-71.44 -88.47,-92.82 -80.71,-46.7 -198.18,-41.87 -286.86,-25.6 -80.12,14.68 -187.58,51.46 -224.54,130.93 -0.41,0.65 -0.64,1.4 -0.9,2.19 -1.76,3.94 -3.53,7.91 -4.93,12.09 -2.04,6.05 -0.01,11.22 3.81,14.79 1.55,98.84 48.78,187.93 140.44,235.11 76.85,39.53 214.15,53.61 292.65,2.82 65.98,-18.01 115.91,-93.71 141.26,-151.05 17.14,-38.75 36.82,-85.4 27.54,-128.46z"/>
   <path class="fil16" d="M1335.6 2457.9c-59.79,-102.45 -176.69,-116.73 -288.59,-110.24 -111.46,6.47 -222.8,42.09 -279.41,144.74 -8.21,14.89 6.28,26.49 19.12,23.67 1.45,4.95 4.49,9.62 9.72,13.15 19.52,13.18 39.04,26.37 58.56,39.55 10.95,7.38 26.45,0.25 32.31,-9.96 33.29,-58.09 126.11,-65.8 186.02,-67.22 62.99,-1.5 129.9,-0.65 186.84,29.03 5.84,3.06 11.52,1.22 16.23,-2.68 13.36,-8.19 26.71,-16.35 40.08,-24.52 9.25,-3.27 24.24,-26.76 19.12,-35.52z"/>
   <path class="fil17" d="M1238.02 2630.17c-73.49,61.14 -175.7,58.32 -266.13,44.08 -83.32,-13.09 -139.75,-67.87 -187.23,-134.16 -10.29,-14.38 -30.69,-1.58 -23.2,14.1 41,85.92 119.54,158.58 216.3,173.85 96.45,15.23 208.23,-7.02 269.35,-89.29 4.82,-6.51 -2.9,-13.73 -9.09,-8.58z"/>
   <path class="fil18" d="M1269.7 2466.36c-12.98,-22.15 -33.49,-43.49 -58.72,-49.96 -28.9,-7.4 -48.48,8.17 -74.26,-6.66 -49.67,-28.56 -101.25,-30.74 -143.34,14.71 -9.56,10.31 -17.35,29.54 -29.62,36.11 -3.08,-4.3 -7.71,-7.79 -14.1,-9.6 -36.89,-10.44 -86.2,-3.4 -105.81,30.25 -13.21,7.28 -23.12,20.61 -21.32,36.06 1.5,12.74 9.67,24.55 20.99,30.63 1.85,0.99 3.87,1.7 5.96,2.29 24.95,25.03 77.45,26.27 110.19,28.8 56.42,4.34 381.11,8.57 310.03,-112.63z"/>
   <path class="fil19" d="M896.66 2496.52c-15.05,0 -14.32,23.35 0.71,23.35 15.05,0 14.32,-23.35 -0.71,-23.35z"/>
   <path class="fil19" d="M1170.11 2440.23c-9.04,-0.08 -17.26,3.27 -23.71,8.74 -3.15,0.68 -6.21,1.71 -9.01,3.23 -16.33,8.84 -23.87,28.74 -19.35,46.49 4.2,16.45 17.5,29.07 33.57,33.9 16.53,4.96 33.53,-0.68 45.46,-12.76 25.15,-25.46 12.94,-79.27 -26.96,-79.6z"/>
   <path class="fil19" d="M1074.59 2442.87c-24.26,0 -34.54,20.48 -31.78,39.11 -1.12,-3.04 -2.92,-5.77 -5.38,-8 -2.57,-4.5 -7.14,-7.81 -13.22,-7.5 -0.85,0.04 -1.54,0.37 -2.35,0.49 -2.68,-2.42 -6.03,-4.02 -10,-3.75 -7.33,0.54 -11.91,5.13 -14.36,11.8 -1.06,2.92 -1.47,6.02 -1.49,9.11 -3.1,-1.97 -6.53,-3.41 -10.26,-3.94 -5.38,-0.77 -9.72,-0.93 -15.01,0.77 -0.65,0.2 -1.22,0.55 -1.85,0.78 -6.45,1.33 -12.47,5 -16.38,10.44 -3.21,4.5 -5.46,10.16 -5.04,15.84 0.47,6.53 2.8,14 8.18,18.2 9.29,7.26 20.24,12.61 32.33,8.88 11.26,-3.47 19.45,-13.19 20.73,-24.66 0.22,0.24 0.33,0.54 0.57,0.77 4.64,4.8 12.84,4.7 17.77,0.58 0.75,-0.63 1.26,-1.44 1.86,-2.17 3.57,-1.27 6.94,-3.26 9.66,-6.18 4.3,-4.61 5.94,-10.37 5.51,-15.89 3.96,13.21 14.83,24.25 32.56,24.25 44.48,0 42.32,-68.93 -2.05,-68.93z"/>
   <path class="fil19" d="M1057.78 2417.62c-8.76,0 -8.34,13.57 0.4,13.57 8.76,0 8.32,-13.57 -0.4,-13.57z"/>
   <path class="fil19" d="M1045.18 2555.36c-0.57,-4.38 -2,-7.81 -5.21,-10.95 -3.49,-3.37 -8.4,-4.54 -13.08,-3.77 -0.17,0.02 -0.35,-0.02 -0.53,0.02 -0.33,0.04 -0.61,0.24 -0.92,0.3 -0.52,0.13 -1.07,0.17 -1.56,0.35 -0.34,0.12 -0.56,0.36 -0.87,0.48 -0.95,0.39 -1.77,0.86 -2.6,1.46 -2.94,1.69 -5.57,3.8 -7.4,6.86 -2.58,4.28 -2.56,8.74 -1.74,13.49 0.56,3.14 3.95,6.93 6.75,8.24 3.41,1.62 6.59,1.72 10.27,1.05 4.21,-0.77 8.27,-2.7 11.29,-5.76 1.16,-1.18 2.01,-2.56 2.76,-3.98 1.87,-2.13 3.21,-4.95 2.84,-7.79z"/>
   <path class="fil19" d="M1152.08 2550.84c-1.02,-1.48 -2.38,-2.86 -3.96,-3.91 -1.2,-1.37 -2.62,-2.52 -4.5,-3.23 -1.38,-0.65 -2.84,-0.93 -4.4,-0.81 -2.05,0.06 -3.96,0.63 -5.72,1.68 -3.47,1.54 -5.91,5.44 -6.9,8.95 -0.75,2.7 -0.71,5.8 0.08,8.5 1.87,6.51 7.69,11.21 14.57,10.95 7.75,-0.28 13.32,-7.1 13.2,-14.58 -0.04,-2.56 -0.91,-5.46 -2.37,-7.55z"/>
   <path class="fil19" d="M1019.15 2425.16c-2.63,-2.49 -6.5,-3.95 -10.11,-3.83 -1.87,-0.02 -3.63,0.42 -5.24,1.3 -1.8,0.62 -3.33,1.66 -4.62,3.14 -1.32,1.54 -2.38,3.33 -3.07,5.27l-0.12 0.06c-1.38,1.36 -2.33,2.95 -2.84,4.79 -0.79,1.67 -1.11,3.43 -0.99,5.3 0.28,3.65 1.58,7.42 4.44,9.87 1.03,0.73 2.05,1.48 3.08,2.2 2.18,1.15 4.53,1.7 7.02,1.64 2.84,0.22 6.39,-1.12 8.77,-2.52 0.2,-0.12 0.38,-0.26 0.58,-0.4 1.04,-0.79 2.26,-1.69 3.19,-2.62 1.13,-1.14 2.09,-2.59 2.88,-3.89 3.93,-6.48 2.47,-15.18 -2.97,-20.31z"/>
   <path class="fil18" d="M1206.64 2499.12c-0.89,-1.1 -1.66,-2.15 -2.7,-3.07 -0.28,-0.24 -6.23,-4.48 -3.34,-2.43 2.88,2.03 -2.93,-2.09 -3.29,-2.29 -1.16,-0.67 -2.33,-1.08 -3.63,-1.58 -2.78,-1.02 -5.82,-1.67 -8.85,-1.75 -1.49,-0.47 -2.98,-0.79 -4.5,-0.95 -6.55,-0.63 -11.46,1.7 -16.31,5.96 -0.32,0.29 -0.56,0.65 -0.87,0.95 -3.59,1.04 -6.12,3.11 -8.07,5.56 -4.06,-4.11 -9.25,-6.81 -14.87,-7.69 -1.26,-2.93 -2.98,-5.39 -4.89,-7.62 4.89,1.5 9.48,0.91 14.16,-1.56 3.43,-1.79 6.68,-6.41 7.38,-10.19 0.21,-1.21 0.06,-2.33 0.06,-3.47 1.31,-1.23 2.38,-2.65 3.23,-4.23l0.35 -0.47 -0.11 -0.04c1,-2.03 1.71,-4.22 1.93,-6.47 1.01,-10.24 -7.26,-19.68 -17.85,-19.25 -6.29,0.26 -11.62,3.51 -16.11,7.73 -0.91,-1.71 -2.06,-3.31 -3.4,-4.73 -0.19,-3.61 -0.77,-7.12 -1.75,-10.79 -3.63,-13.37 -20.16,-19.45 -31.76,-12.29 -5.58,3.43 -9.96,8.64 -12.72,14.54 -2.88,-6.18 -10.49,-10.71 -17.06,-10.24 -3.16,0.22 -6.16,1.11 -8.92,2.63 -0.98,0.55 -1.99,1.36 -2.97,2.3 -1.23,0.3 -2.41,0.67 -3.48,1.13 -5.48,2.42 -8.85,6.74 -10.47,12.48 -1.09,3.83 -1.2,7.66 -1.07,11.58 0.12,3.23 1.07,6.17 2.61,8.76 -6.24,-4.32 -12.65,-6.75 -20.44,-4.46 -4.06,1.18 -7.49,3.53 -10.17,6.57 -6.2,-7.91 -17.65,-9.84 -26.35,-4.56 -5.09,3.1 -8.7,7.5 -11.84,12.45 -1.75,2.8 -2.36,6.84 -1.97,10.69 -4.09,-2.94 -8.23,-5.84 -12.53,-8.01 -5.28,-2.66 -11.65,-3.35 -17.37,-1.93 -11.48,-3.57 -24.4,0 -30.91,10.24 -0.55,-0.75 -1.16,-1.48 -1.91,-2.14 -1.23,-0.88 -2.45,-1.75 -3.67,-2.64 -2.63,-1.36 -5.41,-2.01 -8.37,-1.93 -1.42,0.21 -2.84,0.45 -4.26,0.67 -2.9,0.87 -5.4,2.4 -7.49,4.61l-2.09 2.09c-1.66,1.62 -2.8,3.54 -3.39,5.71 -0.95,1.99 -1.34,4.1 -1.19,6.33 -0.02,2.25 0.49,4.34 1.56,6.25 0.73,2.15 1.97,3.98 3.73,5.5 1.22,0.89 2.44,1.76 3.67,2.64 2.62,1.37 5.4,2.02 8.36,1.94 1.42,-0.22 2.84,-0.46 4.26,-0.67 2.9,-0.87 5.4,-2.41 7.5,-4.62 0.27,-0.28 0.57,-0.55 0.84,-0.83 3.22,9.18 10.99,16.79 20.81,18.88 2.94,0.63 5.68,0.63 8.35,0.38 2.74,1.41 5.62,2.6 8.69,3.46 9.53,2.75 20.18,2.27 29.41,-1.32 12.01,-4.65 16.57,-15.76 13.75,-25.77 0.51,0.17 1.01,0.37 1.52,0.51 6.67,1.95 13.08,0.37 19.11,-2.51 0.12,0.22 0.18,0.48 0.32,0.71l-0.14 0.32c-2.92,5.22 -4,10.89 -1.22,16.9 3.19,6.93 9.84,11.26 17.57,11.23 0.46,1.28 1.54,1.59 3.28,0.94 2.95,0.53 5.87,0.32 8.77,-0.63 3.14,-0.93 6.55,-2.98 9.55,-4.5 4.06,-2.07 8.13,-4.14 12.21,-6.19 19.37,-9.86 10.9,-40.1 -8.56,-42.66 -0.67,-2.59 -1.7,-5.03 -3.08,-7.24 3.99,2.54 9.37,4 14.06,2.6 5.41,2.78 12,3.24 16.97,-0.61l4.91 -3.79c0.69,-0.53 1.3,-1.08 1.93,-1.63 1.91,2.58 4.08,4.87 6.55,6.74 3.37,3.81 8.02,5.7 13.19,5.88 1.03,0.18 2.08,0.14 3.1,0.2 -7.69,3.13 -14.73,9.27 -18.01,16.7 -10.16,23.08 6.95,47.71 29.78,53.71 10.44,2.74 23.16,2.25 32.39,-3.91 5.01,-3.31 8.72,-7.69 11.13,-12.64 0.94,0.81 1.83,1.72 2.91,2.33 0.4,0.24 0.81,0.38 1.23,0.57 9.15,8.82 24.36,10.38 35.19,3.49 13.17,-8.38 17.83,-25.97 7.63,-38.56z"/>
   <path class="fil19" d="M840.13 2482.3c-12.6,3.45 -21.15,14.24 -22.89,27.12 -1.67,12.33 3.54,29.54 14.72,36.12 1.91,1.1 4.54,-0.56 4.38,-2.75 -0.57,-8.87 -5.78,-16.27 -6.39,-25.24 -0.71,-10.18 3.24,-20.22 13.71,-23.28 7.73,-2.25 4.22,-14.1 -3.53,-11.97z"/>
   <path class="fil19" d="M966.44 2446.52c-1.83,2.17 -3.79,4.16 -5.86,6.06 -7.26,-4.96 -15.66,-7.46 -24.69,-6.83 -7.63,0.53 -7.36,12.17 0.35,11.93 7.85,-0.23 14.56,2.43 20.16,7.93 1.9,1.88 5.56,2.43 7.83,0.81 4.44,-3.14 8.45,-6.57 12.09,-10.59 5.88,-6.49 -4.28,-16 -9.88,-9.31z"/>
   <path class="fil19" d="M1169.54 2411.61c-2.45,-0.65 -4.84,0.18 -7.22,0.75 -2.17,0.49 -4.34,1 -6.51,1.5l-0.04 0.02c-5.86,-10.58 -23.11,-14.56 -33.97,-14.2 -11.21,0.35 -10.64,17.27 0.52,17.35 5.11,0.04 9.86,1.26 14.32,3.77 4.71,2.64 8.05,5.97 13.65,6.78 2.84,0.4 5.48,-0.82 6.78,-3.09 0.58,0.02 1.16,0.02 1.82,-0.2l6.31 -2.17c2.35,-0.81 4.77,-1.4 6.53,-3.29 2.29,-2.47 0.97,-6.35 -2.19,-7.22z"/>
   <path class="fil19" d="M1118.24 2529.52c-3.51,-7.08 -13.55,-6.47 -19.45,-3.26 -3.63,1.95 -4.93,7.4 -2.64,10.81 2.34,3.51 7.1,4.99 10.83,2.64l0.51 -0.29 0.15 -0.04 0.3 -0.04 0.06 0c0.39,0.08 0.77,0.18 1.14,0.32 1.23,0.23 2.31,0.19 3.5,0.17 5.44,-0.13 7.81,-5.87 5.6,-10.31z"/>
   <path class="fil19" d="M1127.9 2479.99c-1.6,-1.07 -3.21,-2.11 -4.81,-3.17 -1.09,-0.72 -2.9,-0.75 -4.09,-0.42 -1.28,0.38 -2.66,1.44 -3.25,2.68 -1.36,2.86 -0.29,5.67 2.25,7.34 1.62,1.07 3.21,2.11 4.83,3.18 1.07,0.71 2.88,0.75 4.06,0.41 1.31,-0.39 2.69,-1.44 3.28,-2.68 1.36,-2.86 0.29,-5.66 -2.27,-7.34z"/>
   <path class="fil19" d="M933.3 2536.13c-2.4,-0.62 -4.63,-0.52 -7.04,-0.38 -3.49,0.22 -7.04,2.09 -8.58,5.34 -1.14,2.37 -1.51,5 -0.76,7.54 0.72,2.51 2.64,4.83 4.93,6.05 3.15,1.66 6.88,1.49 9.92,-0.29 2.13,-1.24 4.08,-2.42 5.76,-4.28 4.32,-4.81 2.03,-12.37 -4.23,-13.98z"/>
   <path class="fil19" d="M946.05 2483.09c-4.11,-0.77 -9.55,1.64 -10.1,6.31 -0.3,2.39 -0.81,4.91 -0.83,7.32 -0.02,2.66 1.26,4.91 2.33,7.29 1.61,3.63 7.06,3.52 9.44,0.99 1.84,-1.95 3.48,-3.65 4.25,-6.33 0.51,-1.8 0.82,-3.67 1.22,-5.48 0.92,-4.3 -1.8,-9.27 -6.31,-10.1z"/>
   <path class="fil19" d="M1251.94 2500.13c-2.4,-3.97 -6.82,-4.81 -10.82,-3.45 -1.54,-3.51 -4.11,-6.63 -7.44,-8.7 -3.21,-2.01 -7.3,-0.12 -9.09,2.78 -2.52,4.14 -1.8,8.46 0.87,11.56l-0.04 0.06c-0.77,1.36 -1.66,2.11 -2.75,3.29 -1.83,1.99 -0.73,4.91 1.7,5.66 0.71,0.2 1.44,0.34 2.17,0.49 1.2,1.8 2.86,3.3 4.91,3.61 6.45,1.01 11.7,-0.13 17.5,-2.97 4.34,-2.13 5.34,-8.45 2.99,-12.33z"/>
   <path class="fil19" d="M1273.52 2487.6c-1.5,-3.8 -5.26,-6.37 -9.45,-5.14 -3.66,1.08 -6.66,5.6 -5.14,9.45 2.23,5.64 1.46,11.55 0.17,17.37 -1.31,5.86 6.02,9.61 10.16,5.43 7.22,-7.24 7.91,-17.82 4.26,-27.11z"/>
   <path class="fil20" d="M2160.79 2059.02c-23.53,-23.92 -59.55,-18.56 -88.74,-10.96 -9.92,2.58 -12.17,11.16 -9.49,18.3 -6.03,11.68 -7.51,26.51 -6.49,40.91 0.89,12.6 13.47,23.94 26.57,19.27 19.41,-6.93 42.37,7.51 52.49,23.51 7.98,12.66 28.79,10.08 32.03,-5.15 5.52,-25.88 14.75,-64.42 -6.37,-85.88z"/>
   <path class="fil20" d="M2178.28 2333.15c0.02,-0.2 0.08,-0.38 0.1,-0.58 1.38,-18.14 -14.67,-34.91 -24.22,-49.37 -10.57,-16.05 -20.77,-31.81 -29.37,-48.97 1.15,-6.02 3.02,-12.13 6.09,-18.52 7.34,-15.29 -13.64,-32.52 -25.38,-18.17 -9.35,11.44 -18.36,19.85 -32.47,24.88 -7.65,2.72 -9.78,9.31 -8.12,14.93 -0.24,1.46 -0.44,2.93 -0.44,4.55 0.08,16.73 0.16,33.44 0.24,50.16 0.08,13.51 -1.56,28.72 1.81,41.97 7.82,30.71 33.12,31.76 59.61,33.39 20.95,1.31 53,3.46 53.16,-26.94 0.02,-2.5 -0.38,-4.95 -1.01,-7.33z"/>
   <path class="fil21" d="M2119.36 2045.59c-3.92,-16.41 -26.01,-10.28 -27.11,4.32l-0.07 0.43c-5.38,-10.63 -24.49,-8.32 -24.12,6.1 0.4,15.42 -1.02,31.87 4.13,46.55 2.62,7.43 11.06,9.35 16.54,5.7 1.03,5.99 2.86,11.73 6.02,17.02 4.04,6.78 13.97,7.83 19.33,2.03 20.04,-21.63 11.4,-56.55 5.28,-82.15z"/>
   <path class="fil21" d="M2120.51 2295.93c-0.73,-30.28 -2.05,-60.58 -3.08,-90.83 -0.59,-17.44 -25.5,-16.02 -26.59,0.79 -0.31,4.61 -0.59,9.25 -0.9,13.86 -9.12,-4.22 -21.99,0.44 -22.13,13.85 -0.4,35.46 -5.66,87 18.07,115.88 0.47,0.57 1.02,0.91 1.53,1.34 1.27,2.9 2.76,5.72 4.72,8.4 3.96,5.4 13.11,8.2 18.04,1.9 15,-19.2 10.93,-41.58 10.34,-65.19z"/>
   <path class="fil1" d="M1878.12 1702.53c-100.81,-73.69 -201.85,-142.58 -294.81,-226.8 -94.97,-86.02 -185.27,-182.56 -260.1,-286.65 -7.87,-10.96 -25.05,-0.91 -18.11,11 1.72,2.91 3.53,5.81 5.25,8.71 -0.99,1.38 -1.78,3.07 -2.15,5.24 -13.67,81.5 -26.33,161.6 -28.5,244.42 -2.06,79.09 -7.89,167.57 12.27,244.69 2.82,10.79 21.04,11.13 22.58,-0.67 9.53,-73.05 0.88,-149.43 3.45,-223.17 2.74,-78.92 5.27,-158.81 12.17,-237.61 126.67,204.17 301.52,395.36 522.9,495.85 20.77,9.43 46,-19.7 25.05,-35.01z"/>
   <path class="fil22" d="M845.81 2548.61c-33.1,-13.73 -89.18,-38.03 -94.79,-79.03 -2.94,-21.52 12.85,-39.88 26.57,-54.42 15.4,-16.31 33.05,-30.16 52.16,-41.86 73.93,-45.17 168.39,-63.19 254.19,-62.92 47.87,0.14 96.35,5.63 142.3,19.45 41.35,12.45 85.41,36.08 100.36,79.57 27.16,78.99 -71.54,122.21 -130.16,142.37 -113.67,39.09 -238.4,41.87 -350.63,-3.16 -13.85,-5.56 -19.86,16.84 -6.17,22.33 113.09,45.36 240.18,43.55 355.24,5.76 67.81,-22.25 170.38,-66.49 158.41,-154.38 -14.74,-108.11 -156.53,-130.32 -243.69,-134.46 -97.68,-4.66 -207.16,13.89 -291.54,65.44 -38.63,23.61 -96.72,67.5 -89.82,119.16 6.96,52.13 68.79,80.81 111.4,98.48 13.76,5.7 19.76,-16.71 6.17,-22.33z"/>
   <path class="fil22" d="M1331.12 2435.59c1.48,118.5 -71.11,227.88 -184.17,266.87 -99.05,34.14 -231.16,21.32 -311,-50.95 -49.5,-44.81 -73.73,-107.61 -82.6,-172.62 -2.01,-14.7 -24.33,-8.45 -22.34,6.17 8.47,62.05 31.07,122.5 74.32,168.82 37.97,40.65 89.18,66.67 143.06,78.87 123.26,27.93 261.01,-2.07 341.56,-104.53 43.08,-54.8 65.19,-123.06 64.32,-192.63 -0.17,-14.89 -23.35,-14.93 -23.15,0z"/>
   <path class="fil6" d="M843.68 2611.33c7.87,14.74 21.11,26.33 34.14,36.41 12.98,10.02 26.79,18.98 41.26,26.69 5.35,2.86 12.86,1.54 15.86,-4.14 2.84,-5.39 1.56,-12.82 -4.16,-15.86 -13.55,-7.22 -26.57,-15.49 -38.8,-24.79 -0.96,-0.73 0.91,0.73 -0.69,-0.54 -0.85,-0.69 -1.71,-1.35 -2.56,-2.07 -1.54,-1.24 -3.06,-2.52 -4.56,-3.82 -3.04,-2.64 -5.99,-5.39 -8.81,-8.27 -2.51,-2.56 -4.88,-5.27 -7.16,-8.07 1.71,2.12 -0.18,-0.29 -0.4,-0.61 -0.53,-0.73 -1.02,-1.46 -1.52,-2.21 -0.92,-1.43 -1.79,-2.9 -2.6,-4.42 -2.84,-5.34 -10.73,-7.45 -15.84,-4.14 -5.44,3.52 -7.22,10.12 -4.16,15.84z"/>
   <path class="fil6" d="M962.69 2687.68c14.91,0 14.93,-23.15 0,-23.15 -14.91,0 -14.93,23.15 0,23.15z"/>
   <path class="fil23" d="M1626.98 2898.93l-10.58 -41.19c-22.6,5.02 -45.04,10.81 -67.77,15.23l8.27 41.72c23.49,-4.58 46.7,-10.53 70.08,-15.76z"/>
   <path class="fil23" d="M291.28 843.11l33.31 26.44c13.92,-18.52 29.52,-35.67 44.6,-53.24l-31.8 -28.24c-15.59,18.16 -31.69,35.9 -46.11,55.04z"/>
   <path class="fil23" d="M216.35 947.79l35.77 23.01c6.37,-9.67 12.22,-19.68 19,-29.07l20.13 -28.3 -34.44 -24.95 -20.8 29.26c-7,9.72 -13.08,20.05 -19.66,30.05z"/>
   <path class="fil23" d="M919.61 411.36l12.63 40.6c22.31,-6.16 44.46,-13.01 66.9,-18.61l-10.35 -41.25c-23.22,5.8 -46.12,12.85 -69.18,19.26z"/>
   <path class="fil23" d="M798.74 455.8l16.64 39.14c21.49,-8.58 42.96,-17.32 64.67,-25.31l-14.44 -40c-22.46,8.25 -44.65,17.29 -66.87,26.17z"/>
   <path class="fil23" d="M1300.72 353.23l0.12 42.52c23.16,0.27 46.31,1.01 69.45,1.66l2.21 -42.47c-23.93,-0.69 -47.85,-1.44 -71.78,-1.71z"/>
   <path class="fil23" d="M1172.12 359.82l4.3 42.31c23.1,-1.62 46.18,-3.79 69.29,-4.98l-1.95 -42.48c-23.91,1.22 -47.75,3.46 -71.64,5.15z"/>
   <path class="fil23" d="M1045.24 379.15l8.48 41.68c22.82,-3.87 45.52,-8.56 68.44,-11.8l-6.15 -42.08c-23.69,3.36 -47.18,8.18 -70.77,12.2z"/>
   <path class="fil23" d="M1682.11 409.34l-12.41 40.68c22.13,6.79 43.92,14.61 65.88,21.98l14.65 -39.91c-22.68,-7.65 -45.25,-15.72 -68.12,-22.75z"/>
   <path class="fil23" d="M1557.21 378.02l-8.28 41.71c22.72,4.46 45.17,10.22 67.75,15.24l10.59 -41.19c-23.35,-5.22 -46.59,-11.15 -70.06,-15.76z"/>
   <path class="fil23" d="M1430.23 359.33l-4.08 42.33c23.02,2.3 45.95,5.67 68.93,8.45l6.43 -42.04c-23.77,-2.9 -47.47,-6.36 -71.28,-8.74z"/>
   <path class="fil23" d="M2029.86 575.72l-23.89 35.19 28.31 20.13c9.41,6.74 18.99,13.24 27.95,20.59l25.79 -33.8c-9.27,-7.6 -19.17,-14.33 -28.89,-21.3l-29.27 -20.81z"/>
   <path class="fil23" d="M1919.88 508.75l-20.28 37.38c20.02,11.62 40.36,22.73 60.04,34.91l22.31 -36.19c-20.36,-12.6 -41.36,-24.11 -62.07,-36.1z"/>
   <path class="fil23" d="M1804.1 453.33l-16.45 39.21c21.2,9.3 42.35,18.77 63.25,28.65l18.62 -38.23c-21.64,-10.23 -43.49,-20.03 -65.42,-29.63z"/>
   <path class="fil23" d="M2227.5 741.03l-30.34 29.78c15.82,16.89 32.39,33.12 47.15,50.97l31.97 -28.05c-15.3,-18.44 -32.37,-35.25 -48.78,-52.7z"/>
   <polygon class="fil23" points="2133.29,653.91 2106.01,686.54 2132.26,709.28 2145.4,720.65 2157.97,732.64 2187,701.57 2174,689.18 2160.43,677.42 "/>
   <path class="fil23" d="M2506.79 1170.47l-39.53 15.66c4.2,10.78 8.61,21.5 12.64,32.34l11.13 32.89 40.37 -13.42 -11.53 -34.02c-4.2,-11.21 -8.74,-22.29 -13.08,-33.45z"/>
   <path class="fil23" d="M2548.37 1293.28l-40.91 11.58c3.06,11.17 6.56,22.22 9.28,33.47l7.8 33.82 41.51 -9.27 -8.1 -34.99c-2.79,-11.64 -6.39,-23.07 -9.58,-34.61z"/>
   <path class="fil22" d="M1521.24 2294.45c163.05,-43.16 329.82,-71.01 492.88,-114.16 14.4,-3.81 8.28,-26.16 -6.18,-22.33 -163.05,43.16 -329.8,70.98 -492.86,114.14 -14.4,3.81 -8.28,26.16 6.16,22.35z"/>
   <path class="fil22" d="M2003.47 2173.68c8.89,56.96 14.18,114.42 16.07,172.03 0.5,14.87 23.67,14.93 23.18,0 -1.98,-59.71 -7.69,-119.17 -16.9,-178.18 -2.29,-14.7 -24.62,-8.47 -22.35,6.15z"/>
   <path class="fil22" d="M2022.13 2331.35c-67.52,40.26 -141.19,67.36 -214.68,94.38 -73.33,26.96 -145.64,59.37 -222.94,73.29 -14.65,2.65 -8.46,24.98 6.15,22.35 79,-14.22 152.98,-47.59 227.92,-75.13 73.66,-27.08 147.57,-54.55 215.24,-94.89 12.8,-7.61 1.17,-27.65 -11.69,-20z"/>
   <path class="fil24" d="M1062.75 2076.83c0,75.19 -53.88,137.85 -124.99,151.52 -80.39,-42.86 -146.66,-104.36 -180.25,-184.3 15.05,-69.5 76.8,-121.63 150.82,-121.63 85.25,0 154.42,69.17 154.42,154.41z"/>
   <path class="fil24" d="M1813.15 2037.11c-35.78,88.84 -101.7,154.87 -183.14,198.9 -67.53,-16.57 -117.57,-77.5 -117.57,-150.03 0,-85.24 69.15,-154.29 154.42,-154.29 68.11,0 125.92,44.14 146.29,105.42z"/>
   <path class="fil22" d="M1447.41 2307.52c91.74,-14.06 181.4,-47.37 254.75,-105.12 68.31,-53.79 116.47,-127.85 138.5,-211.92 3.79,-14.42 -18.55,-20.59 -22.34,-6.15 -21.12,80.59 -67.3,150.9 -133.1,202.11 -70.31,54.71 -156.57,85.35 -243.98,98.74 -14.68,2.27 -8.45,24.59 6.17,22.34z"/>
   <path class="fil22" d="M1854.67 1692.08c-3.37,43.73 -9.29,87.18 -12.6,130.91 -1.13,14.87 22.03,14.79 23.15,0 3.32,-43.73 9.25,-87.18 12.61,-130.91 1.14,-14.87 -22.04,-14.8 -23.16,0z"/>
   <path class="fil22" d="M1162.26 2286.28c-182.62,-23.37 -396.32,-129.39 -415.99,-334.32 -1.41,-14.71 -24.59,-14.85 -23.17,0 7.36,76.65 40.66,146.39 94.13,201.62 55.21,57 126.86,96.55 201.24,122.64 46.61,16.35 94.81,26.96 143.79,33.22 14.73,1.89 14.6,-21.3 0,-23.16z"/>
   <path class="fil22" d="M700.05 1736.81c1.67,37 3.74,73.97 7.29,110.83 0.6,6.23 4.9,11.58 11.59,11.58 5.79,0 12.18,-5.31 11.58,-11.58 -3.55,-36.86 -5.62,-73.83 -7.29,-110.83 -0.67,-14.85 -23.85,-14.93 -23.17,0z"/>
   <path class="fil22" d="M1877.79 1740.93c43.19,-4.69 78.91,20.68 95.74,59.63 14.69,34.02 14.06,73.55 4.59,108.86 -9.82,36.62 -29.51,67.43 -57.3,93.05 -32.22,29.71 -74.37,56.04 -119.11,59 -14.81,0.97 -14.91,24.14 0,23.15 72.53,-4.77 147.69,-59.8 180.99,-123.55 29.88,-57.22 37.45,-133.96 1.12,-190.19 -23.27,-36.04 -62.72,-57.82 -106.03,-53.12 -14.68,1.6 -14.84,24.77 0,23.17z"/>
   <path class="fil22" d="M712.27 1734.31c-37.62,-5.09 -74.13,7.93 -98.02,37.98 -23.77,29.93 -36.07,69.32 -40.45,106.83 -8.76,74.95 21.15,151.82 87.39,191.3 34.08,20.34 73.78,28.17 112.83,20.91 14.64,-2.72 8.44,-25.05 -6.16,-22.33 -78.84,14.64 -150.63,-46.19 -167.74,-120.59 -15.84,-68.84 10.52,-204.67 105.99,-191.76 14.58,1.98 20.89,-20.35 6.16,-22.34z"/>
   <path class="fil22" d="M754.35 2625.71c19.41,-0.81 37.83,11.95 51.19,24.89 12.99,12.59 27.43,31.17 26.52,50.36 -0.39,8.14 -4.34,14.85 -10.86,19.7 -12.92,9.63 -28.21,7.24 -41.75,0.04 -27.85,-14.83 -47.28,-43.61 -53.28,-74.26 -7.04,-35.93 6.84,-73.49 33.05,-98.34 10.84,-10.3 -5.56,-26.65 -16.38,-16.39 -29.24,27.73 -45.28,68.83 -40.79,109.11 4.37,39.17 26.75,75.58 60.18,96.67 17.5,11.02 39.92,17.38 59.76,9.05 13.13,-5.5 24.51,-15.4 29.83,-28.8 10.16,-25.48 -3.82,-52.96 -19.82,-72.58 -18.18,-22.27 -47.53,-43.89 -77.65,-42.62 -14.86,0.63 -14.94,23.8 0,23.17z"/>
   <path class="fil22" d="M1172.67 2310.64c43.73,6.83 87.62,13.47 131.92,14.91 48.21,1.54 96.13,-3.72 143.39,-13.08 14.62,-2.88 8.42,-25.22 -6.15,-22.34 -45.29,8.97 -91.05,13.73 -137.24,12.25 -42.25,-1.36 -84.06,-7.58 -125.74,-14.09 -14.6,-2.29 -20.89,20.04 -6.18,22.35z"/>
   <path class="fil22" d="M1315.99 2377.42c59.56,2.43 131.05,-2.72 164.54,-60.33 7.51,-12.92 -12.51,-24.6 -20,-11.69 -28.98,49.86 -93.91,50.92 -144.54,48.87 -14.91,-0.61 -14.89,22.57 0,23.15z"/>
   <path class="fil22" d="M2032.78 2183.92c4.51,-10.4 9.11,-21.07 15.88,-30.26 4.65,-6.32 8.28,-9.25 14.65,-12.43 -0.2,0.1 3.14,-1.4 1.7,-0.81 -1.21,0.5 0.96,-0.35 1.22,-0.43 1.6,-0.51 3.18,-1.04 4.81,-1.44 4.46,-1.1 3.35,-0.97 7.95,-1.16 1.68,-0.08 3.35,-0.08 5.03,0 0.71,0.04 5.09,0.43 3.04,0.15 3.29,0.46 6.57,1.25 9.72,2.27 0.89,0.28 1.74,0.59 2.6,0.91 0.28,0.1 2.39,0.98 1.19,0.45 -1.46,-0.63 1.77,0.89 1.59,0.79 0.66,0.34 1.31,0.67 1.94,1.03 1.28,0.69 2.52,1.44 3.73,2.25 0.61,0.39 1.2,0.8 1.79,1.22 2.15,1.54 -0.77,-0.73 1.05,0.87 1.2,1.06 2.39,2.15 3.49,3.31 0.49,0.51 3.1,3.75 1.95,2.17 0.85,1.16 1.62,2.37 2.35,3.59 0.39,0.67 2.42,4.93 1.65,3.06 0.64,1.54 1.13,3.11 1.54,4.71 0.18,0.73 0.93,4.93 0.71,3.08 0.18,1.56 0.24,3.15 0.26,4.71 0,0.99 -0.33,5.35 -0.18,4.4 -0.09,0.59 -0.23,1.13 -0.37,1.7 -0.67,2.68 0.83,-1.32 -0.04,0.18 -0.38,0.64 -2.65,3.74 -1.32,2.18 -2.05,2.43 -4.99,4.89 -6.49,5.96 -13.41,9.55 -28.8,15.96 -44.94,19.27 -6.13,1.26 -9.68,8.5 -8.1,14.24 1.76,6.37 8.1,9.37 14.26,8.09 17.1,-3.51 35.03,-10.99 49.41,-20.85 7.89,-5.4 15.56,-12.01 18.95,-21.22 3.08,-8.35 2.43,-18.84 0.34,-27.34 -8.58,-34.93 -51.12,-52.17 -83.55,-41.1 -25.41,8.67 -37.67,31.43 -47.81,54.75 -2.51,5.74 -1.7,12.42 4.14,15.86 4.91,2.86 13.35,1.61 15.86,-4.16z"/>
   <path class="fil22" d="M2144.93 2170.13c20.61,-6.94 45.7,-8.94 59.92,10.83 14.12,19.64 12.33,47.35 7.43,69.82 -4.24,19.56 -15.08,42.17 -37.53,44.69 -20.55,2.33 -31.36,-19.66 -36.08,-36.29 -5.46,-19.23 -8.06,-43.9 0.58,-62.66 2.62,-5.68 1.61,-12.47 -4.17,-15.84 -4.99,-2.92 -13.21,-1.56 -15.83,4.14 -11.03,23.95 -10.16,52.49 -3.71,77.59 6.68,25.98 23.22,53.93 52.68,56.24 30.67,2.43 53.8,-22.51 63.01,-49.31 9.89,-28.8 12.04,-65.9 -2.38,-93.45 -7.83,-14.96 -21.16,-26.65 -37.45,-31.38 -17.2,-5.01 -35.94,-2.35 -52.62,3.27 -14.07,4.73 -8.03,27.12 6.15,22.35z"/>
   <path class="fil22" d="M2076.17 2215.33c-8.34,8.23 -19.66,13.69 -20.89,26.71 -0.43,4.54 -0.37,9.13 -0.41,13.67 -0.16,18.54 0.12,37.08 0.55,55.6 0.34,15.27 0.36,30.73 2.07,45.92 1.15,9.88 5.98,16.11 16.19,19.23 7.84,2.39 16.67,2.52 24.78,3.33 9.43,0.95 18.87,1.76 28.34,2.05 10.32,0.32 20.63,0.04 30.87,-1.24 8.8,-1.1 19.72,-1.67 26.88,-7.51 8.27,-6.73 7.42,-16.81 7.38,-26.43 -0.06,-10.81 -0.1,-21.64 -0.16,-32.45 -0.06,-14.91 -23.23,-14.93 -23.15,0 0.03,8.11 0.05,16.21 0.11,24.34 0,3.61 0.02,7.2 0.04,10.81 0.02,1.64 -0.27,3.88 0.02,5.4 -0.43,2.35 -0.19,2.72 0.71,1.15 0.99,-0.87 1.03,-1.15 0.08,-0.79 -0.51,-0.52 -8.54,1.77 -9.68,1.97 -3.39,0.53 -6.81,0.89 -10.24,1.16 -8.5,0.66 -17.04,0.68 -25.54,0.32 -7.67,-0.32 -15.33,-0.93 -22.96,-1.68 -3.59,-0.35 -7.18,-0.73 -10.77,-1.12 -2.88,-0.3 -7.75,-1.95 -10.55,-1.66 -1.84,0.18 -0.43,-0.69 0,1.05 1.46,5.96 1.26,2.9 0.95,2.15 -0.24,-0.5 -0.16,-1.11 -0.34,-1.64 0.47,1.38 0.26,2.54 0.06,0.02 -0.1,-1.1 -0.2,-2.23 -0.3,-3.33 -2.34,-30.28 -2.28,-60.95 -2.21,-91.31 0.02,-5.64 0.14,-11.28 0.3,-16.94 0.02,-0.65 0.22,-1.42 0.14,-2.07 0.28,2.31 -1.17,2.86 0.14,1.87 1.56,-1.2 2.9,-3.15 4.57,-4.43 3.28,-2.49 6.47,-4.87 9.39,-7.75 10.63,-10.5 -5.76,-26.89 -16.37,-16.4z"/>
   <path class="fil22" d="M1523.09 2286.77c7.28,61.41 21.09,122.35 33.2,182.92 15.91,79.46 32.44,158.74 49.11,238.03 5.82,27.68 11.7,55.33 17.47,83.02 3.04,14.58 25.37,8.41 22.33,-6.17 -28.76,-137.93 -58.68,-275.66 -84.73,-414.14 -5.19,-27.5 -11.05,-56.95 -14.22,-83.66 -1.74,-14.63 -24.91,-14.79 -23.16,0z"/>
   <path class="fil22" d="M1464.55 2301.49c-1.79,75.86 16.8,149.7 27.53,224.3 3.71,-4.87 7.44,-9.76 11.17,-14.65 -55.03,3.31 -110.36,9.23 -165.55,7.75 -14.91,-0.42 -14.89,22.76 0,23.15 55.19,1.48 110.52,-4.41 165.55,-7.73 8.22,-0.49 12.26,-6.98 11.16,-14.67 -10.43,-72.61 -28.44,-144.32 -26.69,-218.15 0.36,-14.91 -22.82,-14.91 -23.17,0z"/>
   <path class="fil22" d="M2039.88 2343.86c3.08,-1.88 6.27,-3.51 9.58,-4.92 -0.92,0.4 -1.85,0.77 -2.76,1.17 5.74,-2.39 11.76,-4.05 17.91,-4.91 2.66,-0.38 5.64,-3.12 6.93,-5.33 1.46,-2.48 2.07,-6.15 1.16,-8.93 -0.91,-2.81 -2.65,-5.51 -5.33,-6.93 -0.91,-0.37 -1.83,-0.77 -2.76,-1.16 -2.05,-0.55 -4.1,-0.55 -6.15,0 -10.65,1.52 -21.09,5.42 -30.28,11.01 -2.52,1.52 -4.53,4.06 -5.32,6.92 -0.77,2.76 -0.42,6.47 1.16,8.91 3.35,5.21 10.31,7.54 15.86,4.17z"/>
   <path class="fil22" d="M927.76 2725.55c0.77,7.22 -0.18,14.66 -1,21.82 -0.65,5.6 -0.93,7.52 -1.72,13 -0.75,5.32 -1.56,10.63 -2.35,15.95 -1.61,10.87 -3.23,21.74 -4.41,32.67 -0.81,7.41 -1.7,15.11 -0.85,22.56 0.71,6.21 4.83,11.58 11.58,11.58 5.71,0 12.31,-5.33 11.59,-11.58 -0.84,-7.45 0.04,-15.15 0.85,-22.56 1.09,-9.98 2.39,-18.45 3.99,-29.19 1.59,-10.79 3.23,-21.58 4.47,-32.43 0.83,-7.16 1.8,-14.6 1.03,-21.82 -0.65,-6.23 -4.86,-11.6 -11.58,-11.6 -5.76,0 -12.25,5.33 -11.6,11.6z"/>
   <path class="fil22" d="M1333.21 2395.02c54.69,36.31 108.06,74.62 159.84,114.99 4.97,3.87 11.52,4.75 16.37,0 4.06,-3.96 4.93,-12.54 0,-16.39 -53.33,-41.6 -108.16,-81.2 -164.52,-118.6 -12.46,-8.26 -24.08,11.8 -11.69,20z"/>
   <path class="fil22" d="M1872.21 1971.39c14.77,-30.14 36.76,-55.96 63.72,-74.54 5.15,-3.53 7.5,-10.16 4.16,-15.84 -2.97,-5.1 -10.66,-7.73 -15.83,-4.16 -30.57,21.03 -55.7,49.47 -72.06,82.84 -2.76,5.63 -1.51,12.53 4.15,15.84 5.11,3 13.09,1.5 15.86,-4.14z"/>
   <path class="fil22" d="M641.64 1913.97c22.22,20.46 38.26,45.96 46.79,74.5 1.79,6 8.12,9.78 14.25,8.09 5.95,-1.64 9.89,-8.23 8.09,-14.24 -9.66,-32.33 -27.91,-61.88 -52.75,-84.72 -4.6,-4.24 -11.83,-4.56 -16.38,0 -4.29,4.28 -4.62,12.13 0,16.37z"/>
   <path class="fil22" d="M1480.43 1671.8c-45.9,0 -83.1,40.93 -83.1,91.4 0,50.5 37.2,91.4 83.1,91.4 45.89,0 83.09,-40.9 83.09,-91.4 0,-50.47 -37.2,-91.4 -83.09,-91.4z"/>
   <path class="fil22" d="M1043.29 1671.8c-45.9,0 -83.1,40.93 -83.1,91.4 0,50.5 37.2,91.4 83.1,91.4 45.89,0 83.09,-40.9 83.09,-91.4 0,-50.47 -37.2,-91.4 -83.09,-91.4z"/>
   <path class="fil22" d="M1219.64 1851.07c24.87,-0.02 49.72,-0.04 74.6,-0.06 11.43,0 23.62,-1.22 34.98,0 0.36,0 0.71,0 1.07,0 -1.91,-2.01 -2.27,-1.71 -1.07,0.85 -0.09,2.19 1.5,5.6 2.07,7.75 1.4,5.35 2.77,10.71 4.07,16.1 9.21,38.26 17.14,82.76 0.88,120.33 -11.04,25.55 -37.27,42.57 -65.3,40.12 -33.2,-2.92 -52.07,-33.05 -58.17,-63.07 -8.58,-42.31 3.26,-87.16 15.19,-127.62 4.22,-14.34 -18.13,-20.45 -22.35,-6.15 -12.76,43.33 -23.55,89.46 -16.11,134.77 6.29,38.42 30.95,76.85 71.73,83.99 35.08,6.15 70.44,-10.06 89.49,-40.04 25.71,-40.48 19.06,-94.56 9.21,-138.8 -2.74,-12.41 -5.03,-25.98 -9.8,-37.77 -5.78,-14.24 -18.97,-13.65 -32.17,-13.65 -32.76,0.04 -65.54,0.06 -98.32,0.1 -14.92,0 -14.94,23.17 0,23.15z"/>
   <path class="fil22" d="M1419.05 1635.53c16.7,-17.02 50.25,-23.37 73.17,-24.54 28.21,-1.44 47.07,10.46 69.39,25.66 9.51,6.47 21.72,-0.29 20.97,-11.85 -2.74,-42.13 -50.12,-56.19 -85.72,-55.76 -40.16,0.51 -76.04,16.82 -100.93,48.44 -11.93,15.19 10.22,31.19 23.12,18.05z"/>
   <path class="fil22" d="M1117.19 1622.2c-54.5,-48.98 -132.46,-55.45 -182.21,4.67 -7.75,9.37 3.08,23.47 14.14,18.88 55.09,-22.84 99.33,-27.16 152.61,2.94 15.99,9.05 27.63,-15.55 15.46,-26.49z"/>
   <path class="fil22" d="M1295.26 1179.76c117.02,174.15 265.48,326.48 440.71,442.46 50.2,33.23 102.43,63.27 156.26,90.23 13.29,6.65 25.04,-13.33 11.69,-20 -185.21,-92.74 -348.78,-223.75 -481.95,-382.23 -38.17,-45.4 -73.64,-92.94 -106.71,-142.16 -8.27,-12.31 -28.35,-0.73 -20,11.7z"/>
   <path class="fil22" d="M1286.11 1169.66c-12.19,176.26 -26.16,352.97 -16.25,529.73 0.84,14.84 24,14.94 23.17,0 -9.9,-176.76 4.06,-353.47 16.25,-529.73 1.03,-14.89 -22.15,-14.82 -23.17,0z"/>
   <path class="fil22" d="M1195.12 1169.66c-13.69,179.5 -10.93,375.81 72.27,539.89 6.74,13.32 26.74,1.6 20,-11.67 -81.24,-160.24 -82.47,-353.12 -69.11,-528.22 1.14,-14.87 -22.04,-14.8 -23.16,0z"/>
   <path class="fil22" d="M1190.19 1160.56c-100.87,156.41 -209.43,313.69 -356.04,431.08 -40.88,32.74 -84.84,61.56 -131.38,85.61 -13.25,6.84 -1.54,26.84 11.69,20 169.47,-87.6 296.95,-236.28 405.23,-389.87 31.25,-44.31 61.13,-89.57 90.52,-135.13 8.11,-12.56 -11.95,-24.19 -20.02,-11.69z"/>
   <path class="fil22" d="M760.06 1681.45c-4.51,3.03 -9.2,5.8 -14.08,8.18 -1.3,0.65 -2.62,1.24 -3.94,1.86 -1.25,0.53 -1.32,0.57 -0.22,0.12 -0.68,0.27 -1.35,0.55 -2.02,0.8 -2.36,0.93 -4.75,1.78 -7.17,2.55 -5.18,1.65 -10.47,2.96 -15.83,3.88 -1.07,0.2 -2.14,0.36 -3.22,0.51 2.52,-0.37 -1.87,0.2 -2.31,0.24 -2.89,0.3 -5.78,0.46 -8.68,0.53 -6.06,0.17 -11.87,5.21 -11.59,11.58 0.28,6.14 5.1,11.76 11.59,11.58 24.52,-0.65 48.79,-8.1 69.17,-21.83 5.01,-3.38 7.69,-10.36 4.16,-15.84 -3.23,-5.01 -10.48,-7.79 -15.86,-4.16z"/>
   <path class="fil22" d="M1049.95 864.24c-173.84,34.63 -327.9,136.68 -432.88,278.8 -95.91,129.85 -151.93,295.9 -133.94,458.07 9.8,88.38 41.64,172.98 95.13,244.26 8.84,11.78 28.96,0.26 20,-11.69 -93.59,-124.74 -114.51,-285.33 -77.45,-434.64 39.2,-157.94 137.6,-300.79 269.19,-396.13 79.36,-57.49 170.01,-97.19 266.11,-116.33 14.61,-2.91 8.42,-25.25 -6.16,-22.34z"/>
   <path class="fil22" d="M1058.87 885.42c91.93,-51.6 196.33,-73.6 301.32,-65.69 103.41,7.79 203.77,43.37 292.98,95.44 90,52.53 170.28,122.45 234.26,204.74 64.99,83.58 109.81,180.1 134.32,282.98 29.82,125.16 29.76,266.23 -45.09,376.19 -8.4,12.35 11.66,23.95 20.02,11.68 67.99,-99.89 76.87,-225.45 57.91,-341.8 -17.93,-109.96 -59.9,-216.83 -123.43,-308.42 -121.95,-175.8 -318.88,-310.72 -532.9,-339.9 -121.28,-16.53 -244.09,4.71 -351.09,64.77 -13,7.3 -1.32,27.32 11.7,20.01z"/>
   <path class="fil22" d="M1193.37 1171.48c-27.99,91.22 -39.89,186.44 -34.23,281.72 4.32,72.39 17.01,159.79 79.69,206.1 3.1,2.3 6.43,-2.74 3.63,-5.19 -59.25,-51.89 -70.87,-133.73 -74.64,-208.3 -4.65,-91.6 6.67,-184.05 32.71,-271.96 1.49,-5 -5.67,-7.25 -7.16,-2.37z"/>
   <path class="fil22" d="M1297.27 1171c50.87,211.27 231.44,376.15 417.7,474.08 25.36,13.33 51.24,25.68 77.63,36.82 30.32,12.82 62.33,26.49 95.27,30.22 4.77,0.53 7.16,-7.52 2.18,-8.98 -54,-15.82 -104.75,-35.68 -154.71,-61.79 -46.31,-24.2 -91.04,-51.4 -133.49,-81.92 -86.63,-62.28 -164.68,-138.18 -223.2,-227.81 -32.6,-49.96 -58.14,-104.59 -73.06,-162.45 -1.4,-5.43 -9.56,-3.33 -8.32,1.83z"/>
   <path class="fil22" d="M1200.74 1165.51c-32.11,82.44 -79.43,158.64 -133.25,228.58 -56.61,73.55 -121.34,141.4 -195.9,196.96 -38.66,28.8 -79.92,52.9 -124.07,72.21 -4.28,1.88 -1.79,8.34 2.75,6.61 81.83,-31.09 154.18,-88.7 216.29,-149.19 67.95,-66.16 127.38,-141.35 175.8,-222.89 24.75,-41.68 46.65,-85.12 63.79,-130.49 1.42,-3.72 -4.01,-5.36 -5.41,-1.79z"/>
   <path class="fil6" d="M993.5 1722.55c-25.76,0 -25.8,40 0,40 25.74,0 25.78,-40 0,-40z"/>
   <path class="fil6" d="M1534.39 1722.55c-25.76,0 -25.8,40 0,40 25.74,0 25.78,-40 0,-40z"/>
   <path class="fil13" d="M2283.4 464.29c-35.86,-84.33 -101.98,-153.16 -179.75,-198.3 -88.35,-51.3 -175.17,-71.43 -279.29,-63.28 -19.95,1.56 -49.47,6.84 -67.66,15.27 -3.79,1.75 -28.07,16.39 -30.55,17.46 -4.12,-6.37 -30.63,-42.36 -34.91,-48.01 -28.54,-37.63 -47.56,-55.49 -87.28,-80.74 -162.76,-103.45 -389.41,-105.01 -560.79,-19.63 -185.72,92.51 -289.78,285.55 -209.79,480.08 -60.42,36.47 -96.07,107.82 -78.93,179.86 16.81,70.68 94.26,124.38 163.79,132.68 -8.07,20.22 -17.09,46.73 4.65,41.95 76.71,-16.86 179.73,-15.93 257.42,-8.97 84.48,7.57 168.32,21.14 251.24,38.83 75.11,16.03 149.27,36.27 222.11,60.65 40.65,13.61 80.85,28.56 120.52,44.87 36.62,15.08 87.37,29.44 112.07,62.44 13.67,18.3 25.9,9.99 38.48,-9 15.66,-23.62 33.31,-42.6 45.82,-67.64 61.1,8.73 137.69,3.1 189.84,-30.55 78.91,-50.93 122.68,-127.19 140.73,-217.41 20.73,-103.66 24.33,-231.76 -17.72,-330.56z"/>
   <path class="fil14" d="M1793.51 937.93c-6.83,-2.95 -13.85,-5.19 -20.71,-6.2 1,-3.4 1.75,-6.86 2.05,-10.39 33.78,23.1 73.03,39.82 117.63,49.98 6.41,6.05 13.71,11.62 21.48,16.41 -41.81,-12.7 -79.07,-31.94 -120.45,-49.8zm408.77 6.72c-28.48,-25.64 -9.48,-83.69 -9.11,-117.49 0.26,-22.87 -28.4,-24.62 -39.15,-9.11 -109.67,158.45 -387.99,87.43 -468.07,-68.94 -3.59,-7.01 -10.53,-8.81 -17.08,-7.51 -0.71,-0.27 -1.42,-0.54 -2.13,-0.82 -0.67,-26.67 -8.11,-54.08 -8.62,-80.98 -0.67,-34.08 0.83,-70.35 10.79,-103.02 5.56,-18.2 -23.08,-28.83 -31.28,-11.66 -22.57,47.24 -46.57,113.71 -37.32,170.96 -97.02,-34.48 -195.31,-61.26 -299.9,-65.92 -61.66,-2.75 -123.1,1.12 -183.89,11.82 -32.56,5.74 -63.89,15.01 -96,22.55 -15.54,3.65 -44.81,12.49 -61.12,4.53 -25.5,-12.42 -38.09,-46.24 -44.46,-71.34 -6.03,-23.71 -42.31,-17.49 -42.01,6.35 -9.09,-2.06 -19.17,1.69 -20.71,13.18 -4.95,36.66 -9.31,73.95 7.34,108.36 13.39,27.72 37.04,53.55 70,47.49 12.72,-2.34 16.65,-18.68 11.02,-28.51 -8.71,-15.2 -23.45,-24.56 -32.98,-39.07 9.93,9.3 22.45,16.73 38.45,21.44 67.1,19.8 144.57,-20.87 210.85,-29.97 173.96,-23.89 335.38,29.71 498.7,82.4 5.56,1.79 10.75,1.54 15.4,-0.04 21.38,43.32 49.57,79.08 84.26,107.26 -0.96,0.83 -1.87,1.7 -2.78,2.55 -92.59,82.28 -198.28,14.97 -306.31,26.74 -11.34,1.23 -11.17,18.1 0.53,17.91 38.26,-0.63 79.19,16.95 118.17,23.41 0.49,0.67 1.1,1.28 1.91,1.78 24.51,15.07 52.84,22.75 81.52,23.22 82.42,19.83 167.47,58.25 232.25,109.53 9.78,7.74 27.71,10.98 36.37,-1.08 17.99,-25.01 34.49,-50.29 49.49,-77.23 1.22,-2.19 1.91,-4.55 2.36,-6.94 76.43,27.9 157.48,-5.51 229,-38.89 16.05,-7.5 16.52,-32.15 4.51,-42.96z"/>
   <path class="fil14" d="M1709.32 887.02c-12.58,3.7 -23.88,10.53 -36.17,15.22 -13.81,5.28 -27.1,9.36 -41.89,10.98 -9.65,1.06 -9.39,16.04 0.43,15.2 28.38,-2.43 65.05,-11.43 80.5,-37.91 1.06,-1.84 -0.89,-4.06 -2.87,-3.49z"/>
   <path class="fil14" d="M1687.84 306.47c-9.9,10.2 -19.78,25.47 -22.68,39.66 -2.7,13.25 0.06,26.5 3.4,39.32 0.96,3.67 5.73,4.54 8.26,1.97 8.15,-8.37 17.3,-15.66 24.26,-25.13 7.22,-9.82 13.27,-22.33 17.83,-33.59 7.85,-19.31 -15.01,-38.76 -31.07,-22.23z"/>
   <path class="fil14" d="M1664.34 412.61c-6.28,-1.44 -14.34,2.71 -15.31,9.57 -0.59,4.15 -1.23,8.29 -1.76,12.44 -0.63,4.75 -0.08,8.9 0.59,13.62 0.62,4.25 2.92,7.96 7.36,8.98 4.12,0.95 8.54,-1.12 10.53,-4.81 2.21,-4.04 4.38,-7.77 5.49,-12.26 0.98,-4.05 1.77,-8.16 2.66,-12.23 1.46,-6.73 -2.8,-13.75 -9.56,-15.31z"/>
   <path class="fil14" d="M887.33 503.21c-1.88,-7.39 -10.42,-11.65 -17.54,-9.56 -7.41,2.18 -11.63,10.17 -9.56,17.53 2.66,9.45 4.45,19.18 10.06,27.37 7.08,10.37 21.26,5.17 22.15,-6.56 0.75,-9.82 -2.72,-19.32 -5.11,-28.78z"/>
   <path class="fil22" d="M918.51 933.26c49.75,-15.6 102.51,-19.67 154.38,-20.07 66.15,-0.52 132.41,5.55 197.83,15.22 144.68,21.39 287.86,59.08 424.26,111.81 70.11,27.1 138.8,58.71 202.9,98.04 12.77,7.82 24.4,-12.21 11.7,-20 -120,-73.63 -255.54,-122.91 -390.71,-160.43 -137.97,-38.3 -281.99,-65.84 -425.54,-67.75 -60.46,-0.8 -122.94,2.64 -180.97,20.84 -14.18,4.44 -8.13,26.82 6.15,22.34z"/>
   <path class="fil22" d="M920.4 924.14c9.1,-52.74 24.09,-104.13 34.52,-156.6 2.88,-14.56 -19.45,-20.79 -22.34,-6.16 -10.42,52.47 -25.43,103.86 -34.5,156.6 -2.53,14.59 19.8,20.85 22.32,6.16z"/>
   <path class="fil22" d="M1964.3 1000.92c-10.46,22.08 -21.62,43.78 -33.79,64.95 -10.18,17.7 -20.61,35.24 -30.22,53.27 -7.02,13.15 12.98,24.87 20,11.69 9.61,-18.03 20.04,-35.56 30.22,-53.26 12.19,-21.18 23.33,-42.88 33.78,-64.95 2.67,-5.65 1.56,-12.5 -4.16,-15.85 -5.02,-2.95 -13.15,-1.53 -15.83,4.15z"/>
   <path class="fil22" d="M957.78 759.81c179.13,-68.65 381.27,-61.25 562.88,-5.83 52.08,15.89 102.71,36.01 151.43,60.3 13.31,6.63 25.04,-13.34 11.69,-20.01 -175.25,-87.38 -378.52,-125.89 -573.06,-97.88 -54.38,7.82 -107.79,21.42 -159.09,41.08 -13.79,5.28 -7.81,27.69 6.15,22.34z"/>
   <path class="fil22" d="M1654.57 755.69c5.76,57.47 50.3,109.27 90.18,147.59 51.66,49.63 116.47,92.33 187.36,107.43 37.53,8 76.72,7.49 112.88,-6.26 13.78,-5.25 7.81,-27.66 -6.18,-22.34 -61.22,23.3 -127.55,4.99 -182.94,-25.24 -56.68,-30.93 -108.87,-75.63 -145.78,-128.86 -14.67,-21.18 -29.72,-46.09 -32.34,-72.32 -1.48,-14.69 -24.66,-14.85 -23.18,0z"/>
   <path class="fil22" d="M915.77 860.14c-70.91,2.38 -139.71,-48.29 -154.93,-118.43 -14.61,-67.29 23.16,-139.3 84.32,-168.94 5.72,-2.77 7.02,-10.73 4.16,-15.85 -80.38,-144.01 -0.45,-324.46 126.09,-411.64 146.79,-101.13 348.03,-141.11 518.57,-81.01 89.27,31.47 172.9,89.78 222.19,171.82 2.45,4.08 8.28,7.09 13.07,5.32 155.51,-57.54 339.73,-10.08 453.81,108.82 68.18,71.04 104.59,166.29 113.93,263.45 9.51,98.99 -3.9,205.76 -57.14,291.53 -55.05,88.68 -162.13,150.35 -267.69,123.53 -14.46,-3.68 -20.62,18.66 -6.16,22.34 94.95,24.13 196.53,-16.84 260.17,-88.77 70.22,-79.36 96.7,-188.55 96.67,-292.41 -0.03,-106.86 -28.17,-216.62 -94.22,-302.12 -53.98,-69.86 -129.74,-121.05 -213.03,-149.42 -94.1,-32.05 -198.86,-33.93 -292.49,0.71 4.36,1.77 8.72,3.55 13.08,5.32 -46.19,-76.88 -120.65,-134.08 -202.37,-169.23 -86.27,-37.11 -180.65,-47.91 -273.75,-38.03 -178.09,18.9 -368.76,110.76 -439.57,284.54 -34.95,85.78 -37.03,184.78 8.84,266.94 1.38,-5.28 2.76,-10.57 4.14,-15.85 -70.68,34.25 -111.76,118.24 -94.96,195.11 17.42,79.77 96.54,138.14 177.27,135.44 14.87,-0.5 14.95,-23.67 0,-23.17z"/>
   <path class="fil22" d="M1643.53 649.9c0,15.79 0,31.58 0,47.36 0,6.06 5.32,11.87 11.57,11.59 6.28,-0.29 11.6,-5.09 11.6,-11.59 0,-15.78 0,-31.57 0,-47.36 0,-6.06 -5.34,-11.86 -11.6,-11.58 -6.27,0.28 -11.57,5.09 -11.57,11.58z"/>
   <path class="fil22" d="M871.33 641.95c2.27,49.69 33.35,96.88 79.19,116.96 5.72,2.5 12.43,1.68 15.86,-4.16 2.86,-4.91 1.6,-13.32 -4.16,-15.85 -38.36,-16.79 -65.8,-54.81 -67.71,-96.95 -0.69,-14.84 -23.85,-14.93 -23.18,0z"/>
   <path class="fil22" d="M2092.72 1966.02c-80.55,-6.72 -131.97,-83.57 -136.85,-159.46 -1.81,-28.55 2.79,-57.26 9.9,-84.82 7.78,-30.1 19.06,-61.55 39.2,-85.74 16.56,-19.92 49.58,-40 74.75,-21.77 24.89,18.04 21.95,63.02 23.34,89.98 1.41,27.95 1.91,56.43 -3.02,84.06 -3.34,18.8 -12.53,58.3 -39.99,50.63 -19.31,-5.38 -22.7,-36.57 -24.18,-52.76 -2.29,-25.32 -1.06,-51.38 2.86,-76.49 3.75,-23.78 13.14,-45.82 23.52,-67.47 12.97,-26.99 38.95,-76.47 76.53,-64.03 46.68,15.44 47.81,87.2 47.73,127.24 -0.04,24.72 -2.8,49.37 -9.59,73.18 -3.21,11.26 -7.26,22.26 -12.43,32.78 -4.08,8.32 -10.69,24.77 -19.52,29.05 -18.07,8.76 -19.07,-42.37 -19.05,-51.93 0.02,-21.6 2.93,-43.08 7.8,-64.08 4.7,-20.22 10.99,-40.36 20.04,-59.08 7.56,-15.6 17.91,-35.14 35.25,-41.4 35.23,-12.7 64.38,42.03 73.89,67.36 11.53,30.77 14.48,65.25 13.98,97.91 -0.94,61.2 -18.92,132.58 -76.31,164.64 -15.34,8.55 -32.21,13.13 -49.53,15.58 -14.69,2.07 -8.44,24.38 6.18,22.32 85.68,-12.03 130.18,-85.89 140.26,-166.11 4.98,-39.31 3.3,-80.59 -5.78,-119.23 -9.31,-39.85 -35.32,-91.7 -77.64,-104.72 -45.41,-13.98 -73.29,33.28 -87.61,68.58 -18.74,46.26 -28.9,100.14 -21.34,149.87 2.97,19.58 12.99,45.95 37.08,45.16 24.37,-0.79 38.04,-32.11 46.31,-50.86 23.07,-52.45 24.89,-111.62 16.66,-167.58 -3.88,-26.43 -11.3,-54.48 -31.24,-73.57 -16.86,-16.15 -41.32,-24.93 -64.18,-17.37 -40.3,13.35 -61.68,59.52 -76.86,95.64 -11.05,26.27 -17.24,50.23 -19.75,78.67 -2.78,31.56 -3.61,66.97 8.05,96.99 10.02,25.79 34.04,43.35 62.09,32.15 33.93,-13.56 39.98,-60.77 42.6,-92.21 2.91,-34.9 1.6,-71.52 -2.72,-106.24 -4.85,-38.91 -22.74,-77.18 -67.73,-76.17 -78.52,1.76 -109.74,104.03 -119.39,166.87 -12.64,82.28 15.25,176.62 92.29,218.89 20,10.99 41.75,16.83 64.4,18.7 14.87,1.24 14.77,-21.93 0,-23.16z"/>
   <path class="fil22" d="M2077.37 1978.03c-2.36,19.02 -2.92,38.19 -1.67,57.3 0.37,6.04 5.03,11.88 11.57,11.6 5.94,-0.28 12.02,-5.11 11.58,-11.6 -1.24,-19.11 -0.67,-38.28 1.7,-57.3 0.75,-6.03 -5.86,-11.83 -11.58,-11.57 -6.92,0.31 -10.79,5.11 -11.6,11.57z"/>
   <path class="fil22" d="M2146.64 1982.69c-1.22,17.91 -0.29,35.72 2.23,53.49 0.38,2.67 3.12,5.64 5.33,6.92 2.48,1.46 6.13,2.08 8.91,1.17 2.8,-0.91 5.51,-2.62 6.93,-5.31 1.55,-2.96 1.63,-5.66 1.16,-8.93 -0.39,-2.8 0.2,1.71 -0.1,-0.85 -0.14,-1.14 -0.29,-2.29 -0.41,-3.45 -0.22,-1.97 -0.42,-3.95 -0.59,-5.92 -0.36,-4.1 -0.6,-8.24 -0.73,-12.36 -0.28,-8.25 -0.12,-16.52 0.45,-24.76 0.41,-6.05 -5.64,-11.85 -11.6,-11.6 -6.62,0.3 -11.12,5.11 -11.58,11.6z"/>
   <path class="fil22" d="M2071.75 2122.59c-0.08,-11.72 -0.14,-23.43 -0.21,-35.15 -0.02,-5.75 -0.14,-11.52 -0.08,-17.25 0.02,-3.44 -0.24,-7.73 1.81,-10.71 4.4,-6.42 17.69,-8.15 24.58,-9.24 10.16,-1.59 20.73,-1.3 30.93,-0.09 9.54,1.14 19.95,2.84 28.99,6.25 0.53,0.2 2.72,1.22 3.13,1.32 0.72,0.18 1.62,2.27 0.91,-0.04 0.55,1.8 0,4.79 -0.02,6.65 0,3 0,5.99 -0.02,8.99 -0.04,23.97 -0.08,47.95 -0.11,71.92 -0.02,14.91 23.13,14.93 23.17,0 0.04,-22.1 0.08,-44.21 0.12,-66.3 0,-8.64 1.73,-19.43 -1.17,-27.73 -3.35,-9.6 -12.09,-14.75 -21.34,-17.63 -18.77,-5.84 -39.88,-8.8 -59.51,-7.12 -18,1.56 -42.99,6.09 -51.26,24.61 -4.71,10.58 -3.37,22.89 -3.31,34.19 0.08,12.44 0.16,24.89 0.22,37.33 0.09,14.91 23.25,14.93 23.17,0z"/>
   <path class="fil11" d="M2849.51 1260.51c36.97,-97.18 -32.57,-198.78 -110.89,-252.35 -43.7,-29.87 -71.39,-25.99 -117.11,-2.35 -28.64,14.81 -66.38,31.45 -89.88,53.84 -19.29,18.38 -32.91,58.22 -64.6,59.44 -3.06,-8.88 -13.55,-15.88 -22.29,-9.02 -31.46,24.79 -95.09,59.77 -113.21,95.73 -13.64,27.07 12.37,62.24 19.4,88.62 2.49,9.43 6.02,21.1 15.53,17.35 23.02,-9.05 50.75,17.82 37.11,37.23 -3.84,5.42 -13.85,10.04 -10.96,15.38 38.28,71.52 158.11,37.56 220.97,28.17 90.45,-13.51 175.56,-39.65 245.24,-100.71 11.8,-10.35 3.12,-27.45 -9.31,-31.33z"/>
   <path class="fil12" d="M2849.51 1260.51c17.11,-44.96 -6.99,-127.66 -25.78,-169.31 -18.12,12.54 -128.54,79.15 -174.89,102.33 -11.16,5.58 1.85,40.93 -33.48,53.95 -21.78,8.02 -40.03,1.49 -57.68,-14.88 -37.24,13.61 -87.29,17.94 -126.52,14.88 -38.72,-3.01 -83.09,0.65 -94.89,-27.91 2.86,21.8 9.62,55.86 14.66,74.85 2.49,9.43 6.02,21.1 15.53,17.35 23.02,-9.05 50.75,17.82 37.11,37.23 -3.84,5.42 -13.85,10.04 -10.96,15.38 38.28,71.52 158.11,37.56 220.97,28.17 90.45,-13.51 175.56,-39.65 245.24,-100.71 11.8,-10.35 3.12,-27.45 -9.31,-31.33z"/>
   <path class="fil25" d="M2320.51 1218.69c0.4,22.75 9.18,45.55 17.78,66.27 2.59,6.17 5.24,12.3 8.07,18.36 2.42,5.22 4.57,12.13 8.84,16.19 5.04,4.81 11.8,4.8 17.95,2.55 2.85,-1.03 9.11,-4.16 11.19,-3.57 7.36,2.1 12.37,14.43 13.92,21.37 0.43,2.08 0.43,5.77 0.5,5.2 -0.13,1.12 0,0.41 -2.32,1.69 -0.37,0.22 -2.92,1.42 -1.58,0.79 1.18,-0.55 -2.52,0.97 -3.66,1.54 -2.25,1.16 -4.31,2.5 -5.88,4.55 -7.37,9.61 1.27,18.49 7.26,25.98 9.31,11.64 19.66,22.19 31.93,30.67 12.3,8.48 23.9,-11.58 11.69,-20.02 -6.15,-4.24 -11.59,-9.37 -16.7,-14.81 -2.93,-3.1 -5.75,-6.33 -8.44,-9.63 -1.51,-1.83 -2.99,-3.7 -4.43,-5.6 -2.12,-3.43 -2.59,-3.78 -1.45,-1.04 0.94,4.71 -0.44,8.32 -4.1,10.83 0.37,-0.24 0.74,-0.44 1.14,-0.62 1.08,-0.49 0.88,-0.41 -0.64,0.24 1.21,-0.49 2.39,-0.98 3.6,-1.5 3.03,-1.34 5.78,-2.84 8.27,-5.05 17.41,-15.26 4.91,-45.08 -8.71,-58.55 -7.46,-7.41 -17.34,-10.61 -27.66,-8.4 -2.82,0.6 -5.41,1.68 -8.1,2.76 -0.3,0.12 -3.8,1.51 -3.8,1.5 -1.34,0.34 -1.11,0.38 0.67,0.1 2.66,0.17 4.88,1.43 6.62,3.77 -1.14,0.61 -19.26,-44.63 -20.77,-49.17 -3.9,-11.68 -7.8,-23.98 -8,-36.4 -0.3,-14.89 -23.46,-14.94 -23.19,0z"/>
   <path class="fil25" d="M2342.96 1214.83c-0.53,-15.29 23.5,-32.27 33.58,-40.87 10.96,-9.35 22.42,-18.08 34.09,-26.55 6.55,-4.77 13.17,-9.44 19.79,-14.06 3.87,-2.66 18.83,-9.3 19.97,-13.47 -0.61,2.08 -4.91,-0.94 -4.77,0.1 0.1,1.13 5.71,4.62 6.11,4.88 5.85,3.88 12.47,5.9 19.53,6.13 18.29,0.6 42.12,-7.19 50.29,-24.81 3.33,-7.22 3.63,-15.11 3.19,-22.92 -0.2,-3.5 -0.34,-7.25 -0.81,-10.69 -0.1,-0.76 0.41,-3.19 -0.87,-0.28 -1.28,2.98 1.08,-0.22 2.55,-0.97 13.15,-6.62 25.18,-17.82 37.38,-26.09 31.77,-21.59 69.88,-48.72 109.28,-52.4 18.11,-1.69 33.54,7.03 48.43,16.33 19.6,12.21 37.82,26.77 54.35,42.83 32.27,31.26 46.42,69.35 56.68,112.2 5.24,21.8 10.92,43.51 14.42,65.67 2.38,15.08 6.52,36.5 -1.62,50.05 -14.35,23.95 -49.21,38.22 -73.27,49.08 -48.81,21.98 -101.14,36.79 -153.45,47.58 -57.88,11.94 -117.2,18.33 -176.36,15.39 -14.89,-0.73 -14.86,22.44 0,23.18 108.94,5.38 223.72,-17.07 324.29,-58.74 31.87,-13.2 68.71,-28.88 91.87,-55.56 26.05,-30.01 11.73,-77.94 3.8,-112.44 -10.26,-44.5 -19.47,-91.42 -48,-128.49 -27.06,-35.12 -68.17,-69.44 -109.78,-85.61 -38.89,-15.11 -82.76,8.33 -115.76,27.64 -18.59,10.88 -36.44,23 -54.05,35.4 -9.72,6.85 -28.68,15.35 -32.24,27.52 -2.55,8.7 1.38,17.64 0.17,26.39 -1.78,12.49 -19.09,17.85 -30.49,16.57 -13.07,-1.45 -17.34,-15.33 -32.57,-7.94 -15.49,7.51 -30.12,20.41 -43.96,30.6 -13.52,9.95 -26.86,20.21 -39.43,31.33 -14.49,12.8 -36.27,31.53 -35.5,53.02 0.51,14.87 23.7,14.94 23.16,0z"/>
   <path class="fil26" d="M2521.78 1298.88c-1.31,-6.53 -5.88,-12.03 -11.56,-15.49 -3.97,-4.48 -9.48,-7.72 -15.13,-8.55 -5.84,-0.87 -11.16,-0.19 -16.47,2.57 -4.3,2.23 -7.86,6.03 -10.38,10.11 -2.69,4.36 -3.94,9.21 -4.37,14.25 -0.41,5.03 0.94,9.86 2.96,14.38 3.69,8.1 11.96,14.61 20.53,16.69 9.55,2.3 19.77,-0.22 26.66,-7.41 6.79,-7.11 9.68,-16.92 7.76,-26.55z"/>
   <path class="fil26" d="M2665.34 1041.96c-12.53,-4.62 -28.1,-0.22 -36.97,9.52 -11.3,12.37 -12.17,31.57 -3.03,45.47 9.85,15 27.8,20.88 45.04,17.59 16.61,-3.18 32.07,-17.74 30.53,-35.66 -1.65,-19.13 -17.21,-33.67 -35.57,-36.92z"/>
   <path class="fil12" d="M2689.28 1054.37c-25.92,-3.79 -55.57,7.92 -68.21,30.52 -0.2,0.36 -0.47,0.51 -0.7,0.83 1.04,3.95 2.69,7.76 4.97,11.23 9.85,15 27.8,20.88 45.04,17.59 16.61,-3.19 32.07,-17.74 30.53,-35.66 -0.85,-9.62 -5.18,-18.07 -11.63,-24.51z"/>
   <polygon class="fil22" points="2661.38,1078.43 2661.34,1078.46 2661.38,1078.42 "/>
   <path class="fil26" d="M2773.64 1233.96c-4.16,-11.41 -15.06,-20.68 -27.76,-19.66 -7.87,0.63 -15.56,4.44 -20.74,10.37 -0.34,0.17 -0.71,0.23 -1.04,0.41 -9.75,5.59 -13.31,17.52 -10.66,28.02 2.52,10 10.93,18.61 21.18,20.57 11.12,2.13 22.45,-1.22 30.72,-9.01 8.14,-7.69 12.27,-19.89 8.3,-30.7z"/>
   <path class="fil26" d="M2461.72 1181.15c0,-0.53 -0.04,-1.05 -0.14,-1.58 -0.17,-1.53 -0.27,-3.13 -0.74,-4.61 -0.57,-1.94 -1.41,-3.98 -2.65,-5.65 -1.99,-2.75 -3.67,-4.44 -6.42,-6.45 -1.72,-1.26 -3.7,-2.03 -5.68,-2.82 -1.21,-0.47 -2.46,-0.77 -3.73,-0.96 -4.51,-0.68 -8.91,-0.77 -13.35,0.61 -2.08,0.66 -4.17,1.54 -6.05,2.65 -2.52,1.47 -4.57,4.11 -5.34,6.92 -0.74,2.77 -0.41,6.46 1.17,8.92 0.17,0.27 0.44,0.46 0.64,0.72 -0.33,0.73 -0.67,1.46 -0.91,2.22 -0.43,1.52 -0.57,3.14 -0.77,4.7 -0.27,2.12 0.07,4.26 0.44,6.35 0.4,2.05 1.24,4.08 2.32,5.85 1.04,1.71 2.32,3.39 3.86,4.69 2.56,2.17 4.57,3.27 7.67,4.5 1.98,0.78 4.13,1 6.25,1.21 2.12,0.22 4.3,-0.13 6.35,-0.51 2.05,-0.37 4,-1.24 5.85,-2.18 1.78,-0.93 3.53,-2.26 4.91,-3.77 2.25,-2.49 3.36,-4.57 4.57,-7.64 0.77,-1.96 1.01,-4.15 1.14,-6.22 0.07,-0.74 0,-1.5 -0.03,-2.26 0.3,-1.55 0.6,-3.12 0.64,-4.69z"/>
   <path class="fil12" d="M2461.31 1184.1c-0.2,-0.27 -0.33,-0.56 -0.53,-0.83 -0.14,-0.22 -0.31,-0.43 -0.48,-0.65l-0.2 -0.25c-0.23,-0.28 -0.47,-0.56 -0.74,-0.83 -0.5,-0.54 -0.97,-1.06 -1.51,-1.57 -0.5,-0.5 -1.07,-0.97 -1.61,-1.47l-0.1 -0.09c-1.15,-0.7 -2.22,-1.53 -3.4,-2.2 -0.6,-0.34 -1.28,-0.65 -1.88,-0.99l-0.13 -0.08c-1.25,-0.4 -2.46,-0.89 -3.74,-1.24 -0.8,-0.22 -1.61,-0.41 -2.45,-0.57l-0.13 -0.02c-2.02,0.16 -1.05,-0.14 0,0 0.16,-0.01 0.2,0 0.4,-0.02 -1.34,0.13 -2.89,-0.27 -4.27,-0.28 -1.38,-0.01 -2.76,0.09 -4.1,0.2l-0.07 0c-0.7,0.17 -1.41,0.29 -2.15,0.46 -1.44,0.35 -2.89,0.78 -4.27,1.29 -0.23,0.1 -0.47,0.18 -0.74,0.27l0 0.01c-0.6,0.29 -1.31,0.68 -1.38,0.72 -1.37,0.73 -2.75,1.55 -4.03,2.43l-0.37 0.21c-0.64,0.33 -1.28,1.06 -1.75,1.5 -1.04,0.9 -2.18,1.52 -3.32,2.05 -0.24,1.22 -0.44,2.45 -0.57,3.67 -0.31,2.12 0.03,4.26 0.4,6.35 0.4,2.05 1.24,4.08 2.32,5.85 1.04,1.71 2.32,3.39 3.86,4.69 2.56,2.17 4.57,3.27 7.67,4.5 1.98,0.78 4.13,1 6.25,1.21 2.12,0.22 4.3,-0.13 6.35,-0.51 2.05,-0.37 4,-1.24 5.85,-2.18 1.82,-0.93 3.53,-2.26 4.91,-3.77 2.25,-2.49 3.36,-4.57 4.57,-7.64 0.77,-1.96 1.01,-4.15 1.18,-6.23 0.03,-0.74 -0.04,-1.49 -0.07,-2.25 0.1,-0.57 0.13,-1.16 0.23,-1.74z"/>
   <path class="fil27" d="M545.86 912.74c-12.2,-62.76 -34.7,-89.07 -90.85,-113.3 -4.59,-1.97 -54.98,-29.46 -59.46,-31.4 -45.41,-51.49 -33.27,-93.52 -87.49,-135.73 -80.57,-62.72 -168.47,-48.9 -229.46,14.36 -55.87,34.15 -82.08,111.75 -59.81,184.31 40.71,132.7 207,216.64 332.62,247.33 58.57,14.31 98.43,11.62 146.22,-29.85 40.01,-34.73 58.4,-83.42 48.23,-135.72z"/>
   <path class="fil28" d="M526.23 991.52c-18.67,10.85 -44.68,13.93 -62.36,-0.28 -15.14,-12.16 -22.72,-40.23 -46.42,-35.53 -18.52,3.68 -33.36,17.45 -52.47,20.15 -22.9,3.23 -45.42,-9.79 -57.59,-29.02 -12.85,-20.32 -7.13,-42.11 -3.93,-64.19 1.16,-8 3.72,-28.12 -4.87,-33.49 -5.77,-3.61 -14.29,2.71 -19.61,5.55 -17.67,9.41 -33.7,16.82 -53.88,10.75 -14,-4.21 -27.34,-12.62 -31.38,-27.52 -7.69,-28.39 16.41,-57.94 26.32,-82.78 3.91,-9.81 9.17,-23.26 0.16,-31.7 -13.38,-12.55 -33.03,-5.73 -47.42,0.84 -29.35,13.4 -65.75,41.19 -98.14,20.05 -30.46,-19.87 -26.12,-56.99 -12.17,-85.77 -44.52,38.18 -63.67,107.27 -43.68,172.4 40.71,132.7 207,216.64 332.62,247.33 58.57,14.31 98.43,11.62 146.22,-29.85 22.59,-19.61 38.28,-43.67 45.83,-70.31 -5.26,5.16 -10.96,9.73 -17.23,13.37z"/>
   <path class="fil25" d="M6.16 762.39c-2.15,112.53 86.91,200.09 174.14,258.06 87.54,58.19 227.66,122.63 320.78,40.27 38.8,-34.33 60.03,-89.11 55.91,-140.6 -3.77,-47.25 -28.97,-82.2 -68.55,-106.75 -36.82,-22.85 -82,-37.54 -108.6,-73.74 -18.16,-24.71 -23.26,-56.31 -40.99,-81.36 -15.44,-21.8 -36.61,-39.24 -60.69,-50.76 -113.6,-54.35 -266.06,25.4 -272,154.88 -0.68,14.9 22.49,14.87 23.17,0 4.86,-105.99 126.78,-174.49 223.09,-140.66 23.3,8.19 44.85,22.23 60.85,41.14 18.22,21.52 24.57,48.84 37.36,73.38 19.2,36.86 54.41,58.21 89.94,77.04 32.94,17.46 69.39,35.47 84.93,71.69 18.71,43.62 7.19,97.79 -19.37,135.54 -69.59,98.92 -208.21,44.86 -290.69,-5.18 -88.87,-53.92 -188.27,-139.51 -186.11,-252.95 0.29,-14.92 -22.88,-14.92 -23.17,0z"/>
   <path class="fil25" d="M344.68 704.72c-78.42,-8.95 -158.09,29.5 -201.4,95.1 -8.23,12.48 11.82,24.1 20.01,11.69 39.12,-59.25 111.15,-91.63 181.39,-83.62 14.78,1.69 14.66,-21.49 0,-23.17z"/>
   <path class="fil25" d="M397.96 770.08c-68.26,25.11 -125.98,75.16 -159.5,139.86 -6.85,13.23 13.13,24.95 20,11.69 30.67,-59.19 82.97,-106.14 145.66,-129.21 13.88,-5.1 7.88,-27.5 -6.16,-22.34z"/>
   <path class="fil25" d="M466.8 828.88c-48.02,43.61 -82.33,101.35 -97.77,164.34 -3.55,14.47 18.79,20.65 22.34,6.16 14.56,-59.4 46.54,-113.01 91.82,-154.11 11.06,-10.05 -5.36,-26.39 -16.39,-16.39z"/>
   <path class="fil25" d="M93.15 734.69l0.14 0.27c-0.2,-0.46 -0.39,-0.92 -0.59,-1.38 0.07,0.18 0.12,0.37 0.16,0.56 -0.07,-0.51 -0.14,-1.02 -0.21,-1.54 0.04,0.3 0.04,0.58 0,0.88 0.07,-0.51 0.14,-1.03 0.21,-1.54 -0.07,0.41 -0.19,0.8 -0.34,1.19 0.19,-0.46 0.39,-0.92 0.58,-1.38 -0.31,0.74 -0.74,1.41 -1.15,2.09 -0.63,1.04 -1.17,2.2 -1.5,3.37 -1,3.5 0.13,7.47 3.35,9.41 2.9,1.74 6.58,0.88 8.98,-1.27l0.24 -0.22c0.31,-0.34 0.76,-0.91 1,-1.3 0.62,-1.03 0.92,-2.11 0.95,-3.3 0.05,-1.72 -0.68,-3.74 -2.04,-4.85 -0.52,-0.56 -1.15,-0.96 -1.86,-1.2 -0.69,-0.36 -1.44,-0.52 -2.24,-0.5 -1.41,0 -3.11,0.63 -4.09,1.7 -1.01,1.11 -1.76,2.55 -1.7,4.1 0.07,1.44 0.53,3.14 1.7,4.09l0.19 0.18c-0.31,-0.39 -0.61,-0.78 -0.91,-1.18l0.12 0.19c-0.2,-0.46 -0.39,-0.92 -0.59,-1.38l0.05 0.19c-0.07,-0.51 -0.14,-1.03 -0.2,-1.54l-0.01 0.2c0.07,-0.52 0.13,-1.03 0.2,-1.54l-0.06 0.19c0.2,-0.46 0.39,-0.92 0.59,-1.39l-0.15 0.26c0.3,-0.4 0.61,-0.79 0.91,-1.18l-0.35 0.34c0.39,-0.3 0.78,-0.6 1.17,-0.91l-0.45 0.27c0.46,-0.2 0.93,-0.4 1.39,-0.59 -0.2,0.08 -0.39,0.14 -0.6,0.17 0.52,-0.07 1.03,-0.14 1.54,-0.2l-0.43 0c0.52,0.07 1.03,0.14 1.55,0.21l-0.4 -0.11c0.46,0.2 0.92,0.39 1.38,0.58l-0.21 -0.13c0.39,0.31 0.78,0.61 1.17,0.91l-0.19 -0.18c0.3,0.39 0.6,0.78 0.91,1.17l-0.28 -0.45c0.2,0.46 0.39,0.92 0.58,1.38 -0.09,-0.22 -0.15,-0.44 -0.19,-0.68 0.07,0.52 0.14,1.03 0.21,1.55 -0.03,-0.29 -0.02,-0.57 0.02,-0.86 -0.08,0.51 -0.14,1.02 -0.21,1.54 0.07,-0.46 0.21,-0.89 0.39,-1.32 -0.19,0.46 -0.39,0.92 -0.58,1.38 0.51,-1.16 1.3,-2.17 1.81,-3.34 0.3,-0.7 0.64,-1.4 0.83,-2.13 0.19,-0.73 0.29,-1.53 0.33,-2.29 0.07,-1.52 -0.41,-3.01 -1.12,-4.34 -0.66,-1.25 -2.11,-2.29 -3.46,-2.66 -1.38,-0.39 -3.23,-0.21 -4.46,0.58 -1.24,0.8 -2.32,1.99 -2.66,3.46 -0.36,1.56 -0.17,3.04 0.58,4.47z"/>
   <path class="fil25" d="M116.51 719.37c-0.08,1.32 -0.18,2.63 -0.32,3.95 -0.04,0.37 -0.08,0.75 -0.13,1.12 0.09,-0.61 0.08,-0.56 -0.02,0.14 -0.08,0.56 -0.16,1.12 -0.26,1.68 -0.44,2.59 -1.01,5.17 -1.72,7.71 -0.71,2.54 -1.55,5.04 -2.52,7.5 -0.01,0.03 -0.69,1.68 -0.27,0.7 -0.3,0.7 -0.61,1.39 -0.93,2.07 -0.55,1.19 -1.15,2.37 -1.76,3.54 -1.41,2.68 -0.77,6.42 2.08,7.92 2.67,1.41 6.41,0.79 7.92,-2.08 5.61,-10.63 8.82,-22.24 9.51,-34.25 0.18,-3.03 -2.79,-5.92 -5.79,-5.79 -3.29,0.15 -5.6,2.55 -5.79,5.79z"/>
   <path class="fil25" d="M178.61 888.49c5.03,5.64 10.05,11.27 15.08,16.91 2.02,2.26 6.15,2.21 8.19,0 2.22,-2.43 2.16,-5.78 0,-8.19 -5.02,-5.64 -10.05,-11.27 -15.07,-16.91 -2.03,-2.27 -6.16,-2.21 -8.2,0 -2.22,2.42 -2.15,5.77 0,8.19z"/>
   <path class="fil25" d="M198.05 862.08c2.53,9.49 5.06,18.97 7.58,28.45 0.78,2.94 4.17,5.01 7.13,4.05 3,-0.97 4.88,-3.99 4.04,-7.12 -2.52,-9.49 -5.05,-18.97 -7.58,-28.46 -0.78,-2.93 -4.17,-5 -7.12,-4.04 -3.01,0.97 -4.88,3.98 -4.05,7.12z"/>
   <path class="fil25" d="M363.41 866.06c-2.95,2.88 -5.9,5.78 -8.85,8.66 -1.05,1.04 -1.69,2.63 -1.69,4.1 0,1.42 0.63,3.12 1.69,4.09 1.11,1.02 2.56,1.77 4.1,1.7 1.54,-0.07 2.97,-0.59 4.1,-1.7 2.94,-2.88 5.89,-5.77 8.84,-8.66 1.05,-1.03 1.7,-2.63 1.7,-4.1 0,-1.42 -0.64,-3.11 -1.7,-4.09 -1.1,-1.02 -2.56,-1.77 -4.1,-1.7 -1.54,0.07 -2.97,0.59 -4.09,1.7z"/>
   <path class="fil25" d="M380.55 878.69c-5.27,4.37 -10.55,8.75 -15.83,13.13 -1.08,0.89 -1.7,2.74 -1.7,4.09 0,1.42 0.64,3.12 1.7,4.1 1.1,1.01 2.55,1.76 4.1,1.69 1.61,-0.07 2.85,-0.66 4.09,-1.69 5.28,-4.38 10.56,-8.76 15.83,-13.13 1.08,-0.9 1.7,-2.75 1.7,-4.1 0,-1.42 -0.63,-3.12 -1.7,-4.09 -1.1,-1.02 -2.55,-1.77 -4.09,-1.7 -1.62,0.07 -2.86,0.67 -4.1,1.7z"/>
   <path class="fil25" d="M457.7 973.5c7.45,0 7.47,-11.59 0,-11.59 -7.45,0 -7.47,11.59 0,11.59z"/>
   <path class="fil25" d="M468.69 943.27c0.4,0.51 0.38,0.48 -0.06,-0.1 0.18,0.25 0.37,0.49 0.55,0.73 0.36,0.49 0.72,0.98 1.07,1.48 0.7,0.99 1.39,2 2.04,3.02 1.27,1.98 2.46,4.02 3.55,6.11 0.52,1.01 1.03,2.03 1.51,3.06 0.26,0.55 0.51,1.1 0.75,1.66 0.13,0.28 0.25,0.56 0.37,0.84 -0.29,-0.69 -0.31,-0.73 -0.06,-0.13 0.88,2.28 1.71,4.55 2.42,6.88 0.87,2.9 4.09,5.03 7.12,4.05 2.92,-0.95 4.99,-4.02 4.05,-7.13 -3.19,-10.49 -8.34,-20.07 -15.12,-28.66 -1.88,-2.39 -6.24,-2.12 -8.19,0 -2.32,2.54 -2.01,5.64 0,8.19z"/>
   <path class="fil25" d="M220.91 670.94c5.68,4.2 11.37,8.39 17.06,12.59 1.13,0.83 3.16,0.94 4.46,0.58 1.35,-0.37 2.8,-1.41 3.46,-2.66 0.71,-1.34 1.07,-2.97 0.59,-4.46 -0.5,-1.52 -1.39,-2.52 -2.67,-3.47 -5.68,-4.19 -11.37,-8.39 -17.06,-12.58 -1.13,-0.84 -3.16,-0.94 -4.46,-0.59 -1.34,0.38 -2.8,1.41 -3.46,2.67 -0.71,1.34 -1.07,2.97 -0.59,4.46 0.5,1.52 1.39,2.52 2.67,3.46z"/>
   <path class="fil25" d="M236.41 654.93c4.38,5.28 8.75,10.56 13.13,15.83 0.89,1.08 2.75,1.7 4.09,1.7 1.42,0 3.12,-0.63 4.1,-1.7 1.01,-1.1 1.76,-2.55 1.69,-4.09 -0.07,-1.62 -0.67,-2.86 -1.69,-4.1 -4.38,-5.28 -8.75,-10.56 -13.13,-15.84 -0.89,-1.07 -2.75,-1.69 -4.09,-1.69 -1.42,0 -3.12,0.63 -4.1,1.69 -1.01,1.11 -1.77,2.56 -1.7,4.1 0.08,1.61 0.67,2.86 1.7,4.1z"/>
   <path class="fil27" d="M1615.52 2829.42c2.99,-2.84 5.99,-5.62 9.05,-8.19 27.61,-23.03 60.49,-41.65 88.5,-64.67 2.76,5.48 5.38,10.95 7.69,16.19 11.07,25.25 18.43,67.62 30.72,89.79 -47.58,9.62 -101.54,-5.45 -135.96,-33.12zm-56.23 -64.36c-8.43,-16.55 -3.7,-57.41 5.32,-68.93 21.87,-27.99 73.71,-24.5 99.15,-4.95 0.56,0.43 1.07,0.94 1.62,1.38 -31.7,18.55 -77.95,48.91 -106.09,72.5zm296.25 31.38c-3.73,12.94 -11.72,22.41 -21.91,29.41 -2.33,-27.63 -11.39,-61.36 -21.52,-88.86 41.26,-6.78 52.13,29.27 43.43,59.45zm94.57 -78.58c-31.89,-70.71 -127.45,-88.04 -196.74,-66.53 -36.41,-42.62 -85.05,-61.24 -143.08,-64.59 -124.83,-7.18 -186.92,151.83 -111.08,241.85 0.82,0.99 1.67,1.84 2.56,2.63 -0.57,2.07 -0.65,4.16 -0.34,6.23 -2.54,3.15 -5.1,6.29 -7.51,9.52 -18.92,10.2 -39.64,18.05 -31.99,46.08 8.46,31 44.44,29.76 67.79,17.1 8.06,-4.38 15.6,-10 22.86,-16.19 46.05,46.51 136.35,70.33 216.45,65.58 -2.94,17.02 -1.48,33.67 9.72,45.05 16.39,16.69 40,13.88 57.32,1.7 24.22,-12.57 37.56,-45.27 34.73,-73.79 6.53,-3.77 12.65,-7.91 18.17,-12.51 7.47,-6.19 11.64,-15.93 11.08,-25.66 51.11,-42.72 79.75,-110.65 50.06,-176.47z"/>
   <path class="fil28" d="M1673.52 2744.01c-32.17,25.49 -61.29,55.33 -91.49,83.1 -14.28,13.12 -28.68,26.12 -42.92,39.27 -21.42,19.77 -36.02,28.05 -60.44,7.85 -8.46,-7 -17.02,5.25 -12.07,13.04 22.72,35.62 49.37,40.73 81.74,13.18 49.23,-41.88 100.73,-85.19 145.56,-131.72 13.95,-14.48 -3.79,-37.87 -20.38,-24.72z"/>
   <path class="fil28" d="M1879.29 2726.46c-18.62,-28.36 -53.16,-33.69 -82.59,-19.74 -12.21,5.8 -3.96,23.04 8.43,18.85 18.24,-6.17 43.15,1.72 56.03,15.84 16.55,18.13 18.46,42.94 4.38,62.78 -1.66,2.33 1.73,4.52 3.55,2.49 19.19,-21.24 26.43,-55.49 10.2,-80.22z"/>
   <path class="fil28" d="M1789.56 2855.58c-5.48,-83.67 -59.53,-200.1 -151.12,-216.3 -71.4,-12.6 -145.13,50 -106.79,122.7 5.11,9.69 22.78,6.12 19.61,-5.83 -9.89,-37.28 9.96,-71.01 45.74,-81.46 21.97,-6.41 44.12,-1.9 63.55,8.6 0.49,2.14 1.44,4.24 3.37,5.99 26.25,23.85 43.71,52.9 65.07,80.34 11.81,30.65 18.64,63.23 30.63,94.89 6.75,17.79 31.03,7.75 29.94,-8.93z"/>
   <path class="fil28" d="M1806.07 2966.4c-2.03,-7.18 -7.91,-12.74 -15.9,-11.46 -7.1,1.15 -13.01,8.54 -11.46,15.88 1.28,6.02 2.11,12.05 2.17,18.21 0.08,7.45 0.58,14.55 5.53,20.55 3.76,4.56 10.69,5.17 15.28,1.48 12.76,-10.28 8.21,-31.03 4.38,-44.66z"/>
   <path class="fil28" d="M1933.82 2852.63c-43.41,40.08 -102.09,66.28 -160.53,74.62 -75.52,10.77 -129.01,-14.55 -197.16,-41.46 -10.81,-4.26 -19.27,11.58 -9.51,18.13 110.97,74.4 293.87,75.36 372.33,-46.53 2.07,-3.2 -2.07,-7.56 -5.13,-4.76z"/>
   <path class="fil25" d="M1546.68 2768.08c-25.01,21.7 -48.56,44.91 -71.14,69.11 -9.02,9.67 -18.82,19.12 -23.75,31.62 -3.57,9.05 -4.01,19.31 -1.38,28.7 5.17,18.64 21.14,32.82 39.17,38.72 20.02,6.54 41.79,1 56.61,-13.83 12.13,-12.15 23.29,-25.25 35.48,-37.36 13.08,-13 26.67,-25.46 40.63,-37.47 11.32,-9.75 -5.13,-26.06 -16.37,-16.39 -21.28,18.3 -41.64,37.69 -60.73,58.28 -12.19,13.14 -23.29,28.74 -42.72,26.13 -11.66,-1.56 -24.36,-10.47 -28.7,-21.04 -2.56,-6.25 -2.76,-11.88 -0.2,-18.18 3.91,-9.61 13.26,-17.4 20.18,-24.76 22.07,-23.45 44.97,-46.04 69.31,-67.14 11.26,-9.8 -5.17,-26.13 -16.39,-16.39z"/>
   <path class="fil25" d="M1709.38 2756.74c-36.27,22.42 -70.94,46.8 -103.45,74.44 -5.68,4.85 -3.76,14.77 2.35,18.2 38.13,21.32 81.56,31.11 125.03,32.45 38.66,1.2 81.05,-4.74 110.91,-31.44 23.66,-21.19 36.31,-56.26 30.43,-87.64 -3.04,-16.15 -12.29,-30.73 -26.29,-39.52 -16.59,-10.4 -36.25,-10.02 -54.79,-6.37 -14.62,2.88 -8.45,25.2 6.15,22.34 14.85,-2.94 31.28,-2.88 42.62,8.72 8.56,8.74 10.97,21.15 10.52,33 -1.07,27.2 -17.03,51.14 -40.81,63.87 -28.62,15.26 -64.19,15.58 -95.67,12.9 -33.62,-2.86 -66.9,-11.8 -96.41,-28.33 0.77,6.07 1.56,12.13 2.33,18.21 31.01,-26.37 64.2,-49.45 98.78,-70.83 12.66,-7.83 1.05,-27.87 -11.7,-20z"/>
   <path class="fil25" d="M1543.98 2911.51c90.16,61.89 219.15,81.11 318.74,30.93 13.31,-6.73 1.59,-26.71 -11.7,-20.02 -92.35,46.55 -212.29,26.11 -295.34,-30.91 -12.33,-8.46 -23.93,11.6 -11.7,20z"/>
   <path class="fil25" d="M1767.25 2866.93c-17.45,-64.18 -46.43,-131.59 -95.72,-177.91 -10.85,-10.21 -27.28,6.14 -16.37,16.38 46.47,43.69 73.3,107.21 89.74,167.69 3.91,14.36 26.28,8.26 22.35,-6.16z"/>
   <path class="fil25" d="M1563.07 2784.47c33.16,-28.68 68.58,-54.58 106.12,-77.26 6.15,-3.71 7.96,-13.06 2.34,-18.19 -24.79,-22.7 -57.23,-38.44 -90.33,-23.92 -28.11,12.33 -46.43,40.06 -46.89,70.61 -0.23,16.18 4.19,31.7 10.56,46.41 2.48,5.74 10.9,7.04 15.85,4.14 5.92,-3.45 6.65,-10.07 4.15,-15.84 -10.34,-23.86 -11.46,-52.26 7.88,-71.71 10.77,-10.83 25.45,-18.05 40.97,-16.1 15.9,2.02 29.96,12.29 41.44,22.79 0.77,-6.06 1.56,-12.13 2.33,-18.19 -39.19,23.67 -76.18,50.93 -110.81,80.87 -4.73,4.08 -4.2,12.19 0,16.39 4.69,4.69 11.64,4.1 16.39,0z"/>
   <path class="fil25" d="M1750.25 2666.24c43.41,-15.44 92.13,-21.85 133.12,3.85 30.1,18.86 50.1,50.42 55.01,85.46 9.31,66.28 -29.31,135.61 -87.36,166.87 -3.21,1.74 -6.23,6.21 -5.74,10 3.55,27.48 13.83,69.41 -23.02,77.81 -9.56,2.17 -20.74,1.16 -28.14,-5.9 -11.46,-10.96 -8.58,-32.96 -10.08,-47.12 -1.58,-14.67 -24.76,-14.83 -23.18,0 2.31,21.66 -0.08,46.96 16.87,63.51 12.05,11.76 29.7,15.45 45.93,12.77 16.26,-2.69 31.48,-11.92 40.46,-25.9 14.14,-22.07 7.47,-50.91 4.33,-75.17 -1.91,3.35 -3.82,6.69 -5.73,10.02 53.69,-28.94 90.63,-85.07 98.48,-145.31 8.48,-65.25 -23.29,-131.04 -85.62,-157.02 -42.45,-17.67 -89.31,-11.2 -131.5,3.79 -13.95,4.97 -7.93,27.35 6.17,22.34z"/>
   <path class="fil25" d="M1849.92 2836.56c-30.14,-112.13 -96.14,-244.22 -224.78,-260.55 -41.91,-5.33 -83.82,4.73 -116.27,32.4 -30.18,25.7 -48.4,64.11 -54.44,102.84 -7.18,46.14 0.99,93.79 24.83,134.13 7.6,12.82 27.64,1.16 20.02,-11.7 -35.22,-59.56 -34,-145.13 14.32,-197.67 24.74,-26.89 59.12,-39.67 95.37,-38.27 51.91,2.03 97.61,29.29 131.6,67.3 44.28,49.55 69.98,114.28 87.02,177.68 3.86,14.37 26.21,8.28 22.33,-6.16z"/>
   <path class="fil28" d="M1667.05 2628.22c-7.39,-0.93 -8.87,10.55 -1.45,11.49 7.37,0.93 8.85,-10.55 1.45,-11.49z"/>
   <path class="fil28" d="M1601.87 2626.09c-7.4,-0.95 -8.86,10.55 -1.46,11.48 7.4,0.94 8.87,-10.56 1.46,-11.48z"/>
   <path class="fil28" d="M1687.84 2673.82c-7.39,-0.95 -8.85,10.55 -1.45,11.48 7.39,0.94 8.87,-10.55 1.45,-11.48z"/>
   <path class="fil29" d="M1752.99 2692.3c-7.39,-0.93 -8.87,10.55 -1.46,11.5 7.4,0.92 8.86,-10.55 1.46,-11.5z"/>
   <path class="fil28" d="M1642.89 2753.99c-7.39,-0.92 -8.85,10.56 -1.46,11.51 7.4,0.92 8.88,-10.56 1.46,-11.51z"/>
   <path class="fil28" d="M1580.9 2807.49c-7.4,-0.95 -8.88,10.55 -1.48,11.48 7.4,0.94 8.88,-10.56 1.48,-11.48z"/>
   <path class="fil29" d="M1811.16 2669c-7.4,-0.92 -8.86,10.56 -1.46,11.5 7.39,0.95 8.88,-10.55 1.46,-11.5z"/>
   <path class="fil29" d="M1870.74 2699.06c-7.39,-0.92 -8.85,10.56 -1.45,11.5 7.39,0.95 8.87,-10.55 1.45,-11.5z"/>
   <path class="fil29" d="M1859.25 2660.8c-7.4,-0.95 -8.86,10.55 -1.46,11.5 7.39,0.93 8.87,-10.55 1.46,-11.5z"/>
   <path class="fil29" d="M1908.85 2769.36c-7.38,-0.95 -8.85,10.55 -1.44,11.48 7.38,0.95 8.86,-10.55 1.44,-11.48z"/>
   <path class="fil29" d="M1888.1 2836.27c-7.39,-0.95 -8.88,10.53 -1.46,11.47 7.4,0.95 8.86,-10.55 1.46,-11.47z"/>
   <path class="fil29" d="M1773.51 2756.26c-7.4,-0.94 -8.88,10.56 -1.46,11.5 7.39,0.93 8.85,-10.55 1.46,-11.5z"/>
   <path class="fil29" d="M1733.03 2736.82c-7.39,-0.95 -8.87,10.55 -1.46,11.48 7.38,0.94 8.86,-10.56 1.46,-11.48z"/>
   <path class="fil28" d="M1509.68 2675.73c-7.4,-0.95 -8.88,10.55 -1.46,11.5 7.4,0.93 8.85,-10.55 1.46,-11.5z"/>
   <path class="fil28" d="M1825.42 2975.56c-7.4,-0.95 -8.86,10.55 -1.46,11.48 7.4,0.94 8.88,-10.56 1.46,-11.48z"/>
   <path class="fil28" d="M1763.15 2902.2c-7.4,-0.94 -8.85,10.55 -1.46,11.48 7.4,0.95 8.88,-10.53 1.46,-11.48z"/>
   <path class="fil28" d="M1615.5 2873.23c-7.4,-0.95 -8.88,10.55 -1.46,11.49 7.4,0.93 8.85,-10.55 1.46,-11.49z"/>
   <path class="fil28" d="M1528.22 2851.93c-7.4,-0.95 -8.88,10.55 -1.46,11.47 7.4,0.95 8.85,-10.53 1.46,-11.47z"/>
   <path class="fil29" d="M1794.81 2797.82c-7.4,-0.93 -8.86,10.56 -1.46,11.5 7.4,0.93 8.87,-10.55 1.46,-11.5z"/>
   <g>
    <path class="fil30" d="M1087.37 313.16c-24.61,-0.71 -27.47,-26.61 -6.77,-38.41l233.95 -133.31c25.16,-14.33 50,-3.12 31.78,28.84l-74.16 130.07c-7.3,12.81 -16.45,17.63 -35.9,17.07l-148.9 -4.26z"/>
    <path class="fil30" d="M1431.54 213.65c12.38,-21.27 36.5,-11.4 36.96,12.42l5.21 269.21c0.56,28.96 -21.17,45.41 -40.52,14.12l-78.78 -127.32c-7.75,-12.54 -7.61,-22.88 2.18,-39.7l74.95 -128.73z"/>
    <path class="fil30" d="M1347.37 565.85c11.58,21.72 -9.5,37.04 -30,24.91l-231.7 -137.19c-24.92,-14.75 -27.48,-41.89 9.31,-41.89l149.72 -0.02c14.74,0 23.46,5.56 32.61,22.73l70.06 131.46z"/>
   </g>
   <path class="fil31" d="M1404.9 974.81c73.03,2.8 290.51,40.68 528.1,209.97"/>
   <path class="fil6" d="M1725.79 984.55l-4.09 10.14c-1.56,3.87 -3.71,6.97 -6.45,9.28 -2.76,2.31 -5.88,3.69 -9.39,4.13 -3.51,0.46 -7.16,-0.07 -10.91,-1.58 -3.8,-1.54 -6.83,-3.64 -9.12,-6.33 -2.28,-2.68 -3.66,-5.71 -4.12,-9.12 -0.47,-3.41 0.03,-6.94 1.5,-10.58l6.19 -15.33c1.56,-3.87 3.71,-6.94 6.45,-9.24 2.75,-2.3 5.88,-3.67 9.38,-4.13 3.51,-0.46 7.16,0.07 10.91,1.58 3.1,1.25 5.71,3.05 7.8,5.39 2.12,2.33 3.58,5.01 4.39,8.05 0.79,3.05 0.9,6.24 0.27,9.55l0 0 -10.58 -4.27 0 0c0.09,-1.23 -0.11,-2.42 -0.63,-3.54 -0.49,-1.14 -1.2,-2.14 -2.15,-3.01 -0.94,-0.85 -2,-1.53 -3.2,-2.01 -1.73,-0.7 -3.42,-0.94 -5.05,-0.7 -1.62,0.22 -3.09,0.89 -4.39,2 -1.3,1.1 -2.31,2.58 -3.05,4.43l-6.19 15.33c-0.65,1.62 -0.86,3.2 -0.63,4.74 0.25,1.53 0.91,2.91 1.99,4.12 1.11,1.22 2.53,2.19 4.33,2.91 1.75,0.71 3.44,0.97 5.05,0.78 1.63,-0.19 3.07,-0.83 4.35,-1.93 1.27,-1.1 2.29,-2.59 3.05,-4.47l0.34 -0.85 -7.86 -3.17 3.8 -9.44 18.01 7.27z"/>
   <path id="1" class="fil6" d="M1731.67 977.88l10.36 4.6 -16.25 36.56 -10.36 -4.6 16.25 -36.56zm16.04 19.32c-0.25,-0.68 -0.67,-1.28 -1.25,-1.81 -0.58,-0.55 -1.31,-1.02 -2.2,-1.41 -1.95,-0.86 -3.74,-0.92 -5.37,-0.13 -1.62,0.78 -2.93,2.29 -3.93,4.52l3.49 -9.84c1.98,-1.72 4.04,-2.85 6.19,-3.35 2.15,-0.49 4.18,-0.31 6.11,0.55 1.53,0.67 2.79,1.53 3.81,2.55 1.03,1.04 1.78,2.23 2.28,3.57l-9.13 5.35z"/>
   <path id="2" class="fil6" d="M1775.69 997.73l9.57 4.39 -16.68 36.38 -9.57 -4.39 16.68 -36.38zm-21.42 16.95c-0.8,1.74 -0.94,3.33 -0.39,4.76 0.55,1.43 1.73,2.56 3.52,3.38 1.81,0.83 3.41,0.95 4.84,0.41 1.42,-0.55 2.55,-1.74 3.4,-3.59l-3.15 8.18c-1.59,1.67 -3.48,2.83 -5.68,3.46 -2.2,0.63 -4.42,0.43 -6.7,-0.61 -3.9,-1.79 -6.34,-4.42 -7.3,-7.91 -0.98,-3.49 -0.41,-7.53 1.7,-12.14l10.29 -22.46 9.6 4.4 -10.13 22.12z"/>
   <path id="3" class="fil6" d="M1787.98 1003.62l9.42 4.76 -25.41 50.22 -9.42 -4.76 25.41 -50.22zm-0.62 45.17c-2.08,-1.05 -3.62,-2.49 -4.59,-4.33 -0.97,-1.83 -1.33,-3.9 -1.08,-6.23l4.6 -7.9c-0.59,1.16 -0.88,2.27 -0.88,3.3 -0.02,1.04 0.28,1.97 0.84,2.8 0.57,0.84 1.42,1.55 2.55,2.12 1.76,0.89 3.43,1 4.98,0.32 1.57,-0.68 2.9,-2.07 3.98,-4.21l2.87 -5.67c1.11,-2.18 1.46,-4.13 1.1,-5.82 -0.36,-1.69 -1.43,-2.99 -3.19,-3.87 -1.13,-0.58 -2.2,-0.84 -3.22,-0.79 -1.01,0.04 -1.94,0.38 -2.78,1.03 -0.84,0.64 -1.58,1.57 -2.19,2.77l3.29 -8.27c2.02,-1.6 4.1,-2.56 6.24,-2.91 2.14,-0.34 4.17,-0.03 6.07,0.93 2.52,1.28 4.37,2.99 5.56,5.1 1.19,2.14 1.65,4.6 1.41,7.41 -0.25,2.82 -1.2,5.88 -2.86,9.15l-2.88 5.7c-1.65,3.26 -3.53,5.8 -5.64,7.63 -2.1,1.83 -4.35,2.9 -6.77,3.21 -2.42,0.29 -4.89,-0.19 -7.41,-1.47z"/>
   <path id="4" class="fil6" d="M1814.24 1062.88c-3.21,-1.73 -5.62,-3.82 -7.25,-6.24 -1.62,-2.43 -2.39,-5.11 -2.35,-8.05 0.05,-2.94 0.95,-6.02 2.7,-9.25l3.1 -5.73c1.72,-3.18 3.79,-5.59 6.2,-7.22 2.44,-1.64 5.09,-2.43 8,-2.39 2.91,0.05 5.98,0.93 9.18,2.67 3.22,1.74 5.64,3.82 7.27,6.22 1.63,2.42 2.42,5.08 2.38,8.01 -0.04,2.91 -0.92,5.96 -2.65,9.14l-3.15 5.83c-1.74,3.21 -3.81,5.64 -6.23,7.27 -2.42,1.62 -5.08,2.42 -8,2.4 -2.91,-0.04 -5.99,-0.92 -9.2,-2.66zm4.82 -8.96c1.87,1.02 3.63,1.24 5.25,0.72 1.63,-0.54 2.99,-1.79 4.07,-3.79l3.16 -5.83c1.06,-1.97 1.36,-3.78 0.91,-5.43 -0.45,-1.63 -1.62,-2.97 -3.49,-3.98 -1.86,-1.01 -3.59,-1.24 -5.2,-0.72 -1.63,0.53 -2.95,1.78 -4.02,3.75l-3.15 5.83c-1.08,2 -1.42,3.81 -0.99,5.46 0.44,1.63 1.56,2.97 3.46,3.99z"/>
   <polygon id="5" class="fil6" points="1861.49,1088.92 1852.38,1083.59 1874.44,1045.93 1867.24,1044.7 1872.9,1035.03 1882.04,1036 1889.81,1040.55 "/>
   <path id="6" class="fil6" d="M1867.75 1081.47l29.57 -11.6c1.33,-0.51 2.52,-1.15 3.55,-1.93 1.02,-0.77 1.8,-1.59 2.34,-2.48l0.03 -0.05c0.8,-1.31 0.98,-2.56 0.58,-3.77 -0.42,-1.21 -1.38,-2.28 -2.93,-3.22 -1.48,-0.9 -2.99,-1.16 -4.51,-0.73 -1.51,0.41 -2.92,1.45 -4.21,3.14l-0.02 0.03 -9.25 -5.63 0.02 -0.03c2.01,-2.86 4.29,-5 6.84,-6.4 2.56,-1.39 5.23,-2.02 8.02,-1.86 2.8,0.14 5.57,1.06 8.33,2.74 2.99,1.82 5.25,3.86 6.79,6.13 1.51,2.26 2.26,4.67 2.24,7.21 -0.03,2.55 -0.84,5.13 -2.44,7.76l-0.02 0.04c-1.32,2.17 -3.02,4.09 -5.08,5.78 -2.05,1.68 -4.3,2.96 -6.72,3.87l-20.84 7.73 16.36 9.95 -5.28 8.69 -28.33 -17.23 4.96 -8.14z"/>
  </g>
 </g>
</svg>
