<?xml version="1.0" encoding="UTF-8"?>
<!DOCTYPE svg PUBLIC "-//W3C//DTD SVG 1.1//EN" "http://www.w3.org/Graphics/SVG/1.1/DTD/svg11.dtd">
<!-- Creator: CorelDRAW 2020 (64-Bit) -->
<svg xmlns="http://www.w3.org/2000/svg" xml:space="preserve" width="5.0798mm" height="4.6566mm" version="1.1" style="shape-rendering:geometricPrecision; text-rendering:geometricPrecision; image-rendering:optimizeQuality; fill-rule:evenodd; clip-rule:evenodd"
viewBox="0 0 507.98 465.66"
 xmlns:xlink="http://www.w3.org/1999/xlink"
 xmlns:xodm="http://www.corel.com/coreldraw/odm/2003">
 <defs>
  <style type="text/css">
   <![CDATA[
    .fil0 {fill:#E30031;fill-rule:nonzero}
    .fil1 {fill:white;fill-rule:nonzero}
   ]]>
  </style>
 </defs>
 <g id="Layer_x0020_1">
  <metadata id="CorelCorpID_0Corel-Layer"/>
  <g id="_1375260311648">
   <path class="fil0" d="M36.06 182.7c30.03,-120.36 151.93,-193.58 272.28,-163.56 120.36,30.02 193.59,151.92 163.57,272.28 -30.02,120.35 -151.93,193.58 -272.28,163.56 -120.36,-30.02 -193.59,-151.92 -163.57,-272.28z"/>
   <path class="fil1" d="M318.8 128.56c-25.16,-1.93 -56.74,11.88 -64.18,33.73 -7.66,-21.77 -46.32,-34.98 -71.46,-32.76 -66.34,5.86 -88.42,81.18 -60.02,131.58 15.28,27.13 37.17,50.8 61.03,72.03 19.97,17.78 71.46,55.44 71.61,55.31 0.16,0.13 51.26,-38.1 71.05,-56.1 23.63,-21.5 45.28,-45.41 60.28,-72.71 27.89,-50.72 -1.91,-125.95 -68.31,-131.08z"/>
  </g>
 </g>
</svg>
